<?xml version="1.0" encoding="UTF-8" standalone="no"?>
<!-- Created with Inkscape (http://www.inkscape.org/) -->

<svg
   xmlns:osb="http://www.openswatchbook.org/uri/2009/osb"
   xmlns:dc="http://purl.org/dc/elements/1.1/"
   xmlns:cc="http://creativecommons.org/ns#"
   xmlns:rdf="http://www.w3.org/1999/02/22-rdf-syntax-ns#"
   xmlns:svg="http://www.w3.org/2000/svg"
   xmlns="http://www.w3.org/2000/svg"
   xmlns:sodipodi="http://sodipodi.sourceforge.net/DTD/sodipodi-0.dtd"
   xmlns:inkscape="http://www.inkscape.org/namespaces/inkscape"
   width="200mm"
   height="100mm"
   viewBox="0 0 200 100"
   version="1.1"
   id="svg4008"
   inkscape:version="0.92.3 (2405546, 2018-03-11)"
   sodipodi:docname="lrs_bottom_case.svg">
  <defs
     id="defs4002">
    <linearGradient
       id="linearGradient2526"
       osb:paint="solid">
      <stop
         style="stop-color:#ff0000;stop-opacity:1;"
         offset="0"
         id="stop2524" />
    </linearGradient>
    <inkscape:tag
       id="Set 1" />
  </defs>
  <sodipodi:namedview
     id="base"
     pagecolor="#ffffff"
     bordercolor="#666666"
     borderopacity="1.0"
     inkscape:pageopacity="0.0"
     inkscape:pageshadow="2"
     inkscape:zoom="0.70710681"
     inkscape:cx="360.76225"
     inkscape:cy="283.3486"
     inkscape:document-units="mm"
     inkscape:current-layer="layer1"
     showgrid="false"
     inkscape:window-width="1279"
     inkscape:window-height="1374"
     inkscape:window-x="0"
     inkscape:window-y="0"
     inkscape:window-maximized="0"
     showguides="true"
     inkscape:guide-bbox="true"
     inkscape:measure-start="696.147,319.612"
     inkscape:measure-end="728.738,310.879">
    <sodipodi:guide
       position="36.014568,287.07293"
       orientation="0,1"
       id="guide4613"
       inkscape:locked="false" />
    <sodipodi:guide
       position="200.04389,280.88357"
       orientation="1,0"
       id="guide4615"
       inkscape:locked="false" />
    <sodipodi:guide
       position="182.70424,218.98996"
       orientation="0,1"
       id="guide4617"
       inkscape:locked="false" />
  </sodipodi:namedview>
  <metadata
     id="metadata4005">
    <rdf:RDF>
      <cc:Work
         rdf:about="">
        <dc:format>image/svg+xml</dc:format>
        <dc:type
           rdf:resource="http://purl.org/dc/dcmitype/StillImage" />
        <dc:title></dc:title>
      </cc:Work>
    </rdf:RDF>
  </metadata>
  <g
     inkscape:label="Layer 1"
     inkscape:groupmode="layer"
     id="layer1"
     transform="translate(0,-197)">
    <rect
       style="fill:none;fill-opacity:1;stroke:#000000;stroke-width:0.24224725;stroke-linecap:square;stroke-linejoin:round;stroke-miterlimit:4;stroke-dasharray:none;stroke-opacity:1"
       id="rect956"
       width="186.35475"
       height="87.966751"
       x="6.8226242"
       y="203.01663"
       ry="10.725201" />
    <circle
       style="fill:none;fill-opacity:1;stroke:#000000;stroke-width:0.09948079;stroke-linecap:square;stroke-linejoin:round;stroke-miterlimit:4;stroke-dasharray:none;stroke-opacity:1"
       id="path1156"
       cx="16.858683"
       cy="212.54314"
       r="1.0502596" />
    <circle
       r="1.0502596"
       cy="280.98343"
       cx="16.862816"
       id="circle1196"
       style="fill:none;fill-opacity:1;stroke:#000000;stroke-width:0.09948079;stroke-linecap:square;stroke-linejoin:round;stroke-miterlimit:4;stroke-dasharray:none;stroke-opacity:1" />
    <circle
       style="fill:none;fill-opacity:1;stroke:#000000;stroke-width:0.09948079;stroke-linecap:square;stroke-linejoin:round;stroke-miterlimit:4;stroke-dasharray:none;stroke-opacity:1"
       id="circle1861"
       cx="183.16075"
       cy="280.98343"
       r="1.0502596" />
    <circle
       r="1.0502596"
       cy="212.46805"
       cx="183.16075"
       id="circle1863"
       style="fill:none;fill-opacity:1;stroke:#000000;stroke-width:0.09948079;stroke-linecap:square;stroke-linejoin:round;stroke-miterlimit:4;stroke-dasharray:none;stroke-opacity:1" />
    <path
       d="m 76.145596,274.49453 q -0.607289,0 -1.064955,-0.29044 -0.457667,-0.29045 -0.668898,-0.75691 -0.06162,-0.14963 -0.05281,-0.22883 0.0176,-0.15842 0.176026,-0.29045 0.158423,-0.13201 0.34325,-0.13201 0.123218,0 0.193628,0.0616 0.07041,0.0528 0.158423,0.15843 0.246436,0.31684 0.440065,0.46647 0.193628,0.14082 0.48407,0.14082 0.27284,0 0.457667,-0.12323 0.193629,-0.12323 0.193629,-0.32565 0,-0.22003 -0.211231,-0.33445 -0.20243,-0.12323 -0.660097,-0.28164 -0.466468,-0.15843 -0.75691,-0.29925 -0.281641,-0.14082 -0.492872,-0.40486 -0.20243,-0.27283 -0.20243,-0.6865 0,-0.40486 0.228834,-0.71289 0.228833,-0.30806 0.61609,-0.47527 0.396057,-0.16723 0.862526,-0.16723 0.492872,0 0.853724,0.18483 0.369654,0.18482 0.563283,0.49287 0.193628,0.29924 0.193628,0.6513 0,0.22002 -0.114423,0.32564 -0.105616,0.10559 -0.360853,0.10559 -0.246436,0 -0.334449,-0.0793 -0.07922,-0.0793 -0.105615,-0.22004 -0.06162,-0.58968 -0.695302,-0.58968 -0.316846,0 -0.475269,0.14082 -0.158423,0.13202 -0.158423,0.31685 0,0.22003 0.211231,0.34324 0.21123,0.12323 0.677699,0.28165 0.448865,0.14082 0.739308,0.28164 0.290442,0.14082 0.492872,0.40486 0.21123,0.26403 0.21123,0.6777 0,0.46646 -0.264038,0.77451 -0.255237,0.29925 -0.660097,0.44886 -0.396057,0.14082 -0.818519,0.14082 z"
       style="font-style:normal;font-variant:normal;font-weight:600;font-stretch:normal;font-size:26.39999962px;line-height:1.25;font-family:Mali;-inkscape-font-specification:'Mali Semi-Bold';letter-spacing:0px;word-spacing:0px;fill:#ff0000;fill-opacity:1;stroke:none;stroke-width:0.33338201"
       id="path1892"
       inkscape:connector-curvature="0" />
    <path
       d="m 81.444383,272.77829 q 0.246436,0 0.352052,0.10559 0.11441,0.10559 0.11441,0.33444 0,0.53688 -0.352051,0.88013 -0.34325,0.33445 -0.880129,0.33445 -0.730506,0 -1.064955,-0.59849 -0.325648,-0.60729 -0.325648,-1.91868 0,-0.27284 0.0176,-0.74811 l -0.316847,-0.0176 q -0.422461,-0.0176 -0.422461,-0.41366 0,-0.22003 0.114423,-0.31684 0.11441,-0.10559 0.378455,-0.0968 l 0.316846,0.0176 q 0.06162,-0.62489 0.20243,-1.43461 0.07041,-0.37846 0.519276,-0.37846 0.27284,0 0.41366,0.14082 0.149622,0.14082 0.114423,0.33445 -0.14082,0.95054 -0.184827,1.39061 l 0.536879,0.009 q 0.387256,0.009 0.387256,0.39605 0,0.20243 -0.105615,0.29924 -0.105616,0.0968 -0.360853,0.0968 H 80.37063 q -0.0176,0.45767 -0.0176,0.72171 0,0.93293 0.08801,1.30259 0.08801,0.36965 0.308045,0.36965 0.140821,0 0.20243,-0.0968 0.06162,-0.10559 0.07041,-0.34324 0.0088,-0.19363 0.105615,-0.28164 0.09682,-0.0881 0.316847,-0.0881 z"
       style="font-style:normal;font-variant:normal;font-weight:600;font-stretch:normal;font-size:26.39999962px;line-height:1.25;font-family:Mali;-inkscape-font-specification:'Mali Semi-Bold';letter-spacing:0px;word-spacing:0px;fill:#ff0000;fill-opacity:1;stroke:none;stroke-width:0.33338201"
       id="path1894"
       inkscape:connector-curvature="0" />
    <path
       d="m 86.948347,273.5792 q 0.149622,0.0265 0.228834,0.11441 0.08801,0.0793 0.08801,0.29043 0,0.18484 -0.09682,0.30805 -0.09682,0.12323 -0.255237,0.12323 -0.378456,0 -0.572084,-0.0968 -0.193628,-0.0968 -0.34325,-0.36084 -0.369654,0.55447 -1.337795,0.55447 -1.012148,0 -1.513822,-0.58968 -0.501673,-0.59848 -0.501673,-1.56663 0,-0.6425 0.255237,-1.16177 0.264039,-0.51928 0.74811,-0.81852 0.48407,-0.29925 1.117763,-0.29925 0.360853,0 0.651295,0.14963 0.290443,0.14082 0.440064,0.37845 l 0.02641,-0.18482 q 0.0088,-0.12323 0.114423,-0.21123 0.105615,-0.0881 0.334449,-0.0881 0.264038,0 0.378455,0.12323 0.123218,0.12324 0.09681,0.30804 -0.05281,0.28164 -0.114411,0.99456 -0.02641,0.35205 -0.02641,0.90652 v 0.41367 q 0,0.36965 0.04401,0.53687 0.04401,0.15842 0.237635,0.17603 z m -1.320193,-0.72171 q 0.0088,-0.37845 0.0088,-1.10015 0,-0.40486 -0.264039,-0.6249 -0.255237,-0.22003 -0.589686,-0.22003 -0.484071,0 -0.774513,0.42246 -0.290443,0.42247 -0.290443,1.01215 0,0.57209 0.255238,0.95053 0.255237,0.37847 0.748109,0.37847 0.404859,0 0.651295,-0.21123 0.246436,-0.21124 0.255237,-0.6073 z"
       style="font-style:normal;font-variant:normal;font-weight:600;font-stretch:normal;font-size:26.39999962px;line-height:1.25;font-family:Mali;-inkscape-font-specification:'Mali Semi-Bold';letter-spacing:0px;word-spacing:0px;fill:#ff0000;fill-opacity:1;stroke:none;stroke-width:0.33338201"
       id="path1896"
       inkscape:connector-curvature="0" />
    <path
       d="m 90.549724,269.87386 q 0.545679,0 0.906532,0.36085 0.360853,0.36086 0.360853,0.92414 0,0.54568 -0.352052,0.84492 -0.34325,0.29925 -0.888929,0.29925 -0.264039,0 -0.369654,-0.0793 -0.105616,-0.0881 -0.105616,-0.27283 0,-0.17603 0.07041,-0.24644 0.07922,-0.0793 0.220033,-0.0968 0.536878,-0.0616 0.536878,-0.47527 0,-0.19363 -0.105615,-0.31685 -0.09681,-0.12323 -0.290443,-0.12323 -0.27284,0 -0.501673,0.28165 -0.220032,0.27284 -0.360853,0.6601 -0.132019,0.38725 -0.167224,0.69529 -0.05281,0.53689 -0.05281,1.42581 0,0.44007 -0.114423,0.59849 -0.11441,0.14963 -0.404859,0.14963 -0.281641,0 -0.413661,-0.11441 -0.132019,-0.11441 -0.14082,-0.36085 v -1.51382 q 0,-0.48408 -0.02641,-0.86253 -0.0176,-0.37846 -0.07041,-0.91533 l -0.05281,-0.54568 q -0.0176,-0.19363 0.123218,-0.30805 0.14082,-0.12323 0.387256,-0.12323 0.413661,0 0.448866,0.38725 0.0176,0.30806 0.0352,0.75691 0.167224,-0.45766 0.510475,-0.7393 0.34325,-0.29044 0.818519,-0.29044 z"
       style="font-style:normal;font-variant:normal;font-weight:600;font-stretch:normal;font-size:26.39999962px;line-height:1.25;font-family:Mali;-inkscape-font-specification:'Mali Semi-Bold';letter-spacing:0px;word-spacing:0px;fill:#ff0000;fill-opacity:1;stroke:none;stroke-width:0.33338201"
       id="path1898"
       inkscape:connector-curvature="0" />
    <path
       d="m 98.218121,269.92667 q 0.624891,0 1.135366,0.28164 0.510474,0.27283 0.800913,0.78331 0.29925,0.51047 0.29925,1.19697 0,0.69531 -0.30805,1.20579 -0.299241,0.51047 -0.818517,0.7833 -0.519276,0.26404 -1.152969,0.26404 -0.431263,-0.009 -0.871327,-0.19363 -0.431263,-0.19362 -0.589686,-0.40486 -0.08801,0.14963 -0.228833,0.28165 -0.13202,0.12323 -0.237635,0.16723 -0.105616,0.0528 -0.228834,0.0528 -0.202429,0 -0.34325,-0.14963 -0.14082,-0.14961 -0.14082,-0.32564 0,-0.13202 0.132019,-0.26404 0.03521,-0.0351 0.09682,-0.0968 0.07041,-0.0616 0.09682,-0.12323 0.05281,-0.13201 0.05281,-0.53687 0,-0.35205 -0.0088,-0.61609 l -0.0176,-1.15297 q 0,-0.36085 -0.0088,-0.53688 -0.0176,-2.39395 -0.05281,-3.34448 -0.0088,-0.20244 0.149622,-0.31685 0.167224,-0.12323 0.396058,-0.12323 0.220032,0 0.369654,0.10559 0.149622,0.10559 0.158423,0.29043 0.0176,0.36966 0.02641,0.93294 0.0088,0.55449 0.0176,0.93294 0,0.36086 0.0176,1.3466 0.184827,-0.19363 0.501673,-0.31685 0.325648,-0.12323 0.756911,-0.12323 z m -0.05281,3.67013 q 0.510475,0 0.862526,-0.37845 0.352052,-0.37846 0.352052,-1.05615 0,-0.6689 -0.343251,-1.02976 -0.34325,-0.36966 -0.915333,-0.36966 -0.396058,0 -0.695302,0.18484 -0.299244,0.18482 -0.440064,0.40486 v 0.64248 q 0,0.44888 0.02641,0.77452 0.0088,0.21123 0.176026,0.40486 0.167224,0.19363 0.422461,0.30805 0.264039,0.11441 0.554481,0.11441 z"
       style="font-style:normal;font-variant:normal;font-weight:600;font-stretch:normal;font-size:26.39999962px;line-height:1.25;font-family:Mali;-inkscape-font-specification:'Mali Semi-Bold';letter-spacing:0px;word-spacing:0px;fill:#ff0000;fill-opacity:1;stroke:none;stroke-width:0.33338201"
       id="path1900"
       inkscape:connector-curvature="0" />
    <path
       d="m 103.54042,274.44172 q -1.07376,0 -1.73385,-0.56328 -0.6513,-0.56328 -0.6513,-1.64583 0,-0.69531 0.28165,-1.22339 0.28164,-0.53687 0.80972,-0.83612 0.52807,-0.29924 1.24097,-0.29924 0.70411,0 1.24979,0.29924 0.55448,0.29925 0.85373,0.84493 0.30803,0.53687 0.30803,1.24978 0,1.04735 -0.64248,1.61063 -0.6425,0.56328 -1.71626,0.56328 z m -0.0176,-0.83611 q 0.59849,0 0.94174,-0.33445 0.35206,-0.34326 0.35206,-1.01216 0,-0.66889 -0.34326,-1.10896 -0.34325,-0.44006 -0.95054,-0.44006 -0.58968,0 -0.94173,0.41366 -0.35205,0.41366 -0.35205,1.10897 0,0.69529 0.35205,1.03855 0.36085,0.33445 0.94173,0.33445 z"
       style="font-style:normal;font-variant:normal;font-weight:600;font-stretch:normal;font-size:26.39999962px;line-height:1.25;font-family:Mali;-inkscape-font-specification:'Mali Semi-Bold';letter-spacing:0px;word-spacing:0px;fill:#ff0000;fill-opacity:1;stroke:none;stroke-width:0.33338201"
       id="path1902"
       inkscape:connector-curvature="0" />
    <path
       d="m 110.87684,273.5792 q 0.14963,0.0265 0.22883,0.11441 0.0879,0.0793 0.0879,0.29043 0,0.18484 -0.0968,0.30805 -0.0968,0.12323 -0.25524,0.12323 -0.37845,0 -0.57208,-0.0968 -0.19363,-0.0968 -0.34326,-0.36084 -0.36965,0.55447 -1.33779,0.55447 -1.01214,0 -1.51382,-0.58968 -0.50167,-0.59848 -0.50167,-1.56663 0,-0.6425 0.25523,-1.16177 0.26404,-0.51928 0.74812,-0.81852 0.48406,-0.29925 1.11775,-0.29925 0.36086,0 0.6513,0.14963 0.29045,0.14082 0.44006,0.37845 l 0.0265,-0.18482 q 0.009,-0.12323 0.11441,-0.21123 0.10559,-0.0881 0.33445,-0.0881 0.26404,0 0.37846,0.12323 0.12323,0.12324 0.0968,0.30804 -0.0528,0.28164 -0.11441,0.99456 -0.0265,0.35205 -0.0265,0.90652 v 0.41367 q 0,0.36965 0.044,0.53687 0.044,0.15842 0.23763,0.17603 z m -1.3202,-0.72171 q 0.009,-0.37845 0.009,-1.10015 0,-0.40486 -0.26403,-0.6249 -0.25525,-0.22003 -0.5897,-0.22003 -0.48406,0 -0.77451,0.42246 -0.29044,0.42247 -0.29044,1.01215 0,0.57209 0.25524,0.95053 0.25524,0.37847 0.74811,0.37847 0.40486,0 0.6513,-0.21123 0.24643,-0.21124 0.25523,-0.6073 z"
       style="font-style:normal;font-variant:normal;font-weight:600;font-stretch:normal;font-size:26.39999962px;line-height:1.25;font-family:Mali;-inkscape-font-specification:'Mali Semi-Bold';letter-spacing:0px;word-spacing:0px;fill:#ff0000;fill-opacity:1;stroke:none;stroke-width:0.33338201"
       id="path1904"
       inkscape:connector-curvature="0" />
    <path
       d="m 114.47822,269.87386 q 0.54568,0 0.90653,0.36085 0.36086,0.36086 0.36086,0.92414 0,0.54568 -0.35206,0.84492 -0.34325,0.29925 -0.88893,0.29925 -0.26404,0 -0.36966,-0.0793 -0.10559,-0.0881 -0.10559,-0.27283 0,-0.17603 0.0704,-0.24644 0.0793,-0.0793 0.22004,-0.0968 0.53687,-0.0616 0.53687,-0.47527 0,-0.19363 -0.10559,-0.31685 -0.0968,-0.12323 -0.29044,-0.12323 -0.27284,0 -0.50168,0.28165 -0.22002,0.27284 -0.36084,0.6601 -0.13203,0.38725 -0.16723,0.69529 -0.0528,0.53689 -0.0528,1.42581 0,0.44007 -0.11441,0.59849 -0.11441,0.14963 -0.40486,0.14963 -0.28164,0 -0.41367,-0.11441 -0.13201,-0.11441 -0.14082,-0.36085 v -1.51382 q 0,-0.48408 -0.0263,-0.86253 -0.0176,-0.37846 -0.0704,-0.91533 l -0.0528,-0.54568 q -0.0176,-0.19363 0.12323,-0.30805 0.14082,-0.12323 0.38726,-0.12323 0.41365,0 0.44886,0.38725 0.0176,0.30806 0.0352,0.75691 0.16723,-0.45766 0.51047,-0.7393 0.34326,-0.29044 0.81853,-0.29044 z"
       style="font-style:normal;font-variant:normal;font-weight:600;font-stretch:normal;font-size:26.39999962px;line-height:1.25;font-family:Mali;-inkscape-font-specification:'Mali Semi-Bold';letter-spacing:0px;word-spacing:0px;fill:#ff0000;fill-opacity:1;stroke:none;stroke-width:0.33338201"
       id="path1906"
       inkscape:connector-curvature="0" />
    <path
       d="m 118.86675,274.49453 q -0.66889,0 -1.19697,-0.27283 -0.52808,-0.27285 -0.82732,-0.79212 -0.29925,-0.51928 -0.29925,-1.24099 0,-0.69529 0.28165,-1.20577 0.29044,-0.51047 0.80971,-0.78332 0.52808,-0.28164 1.22339,-0.28164 0.73931,0 1.18817,0.35205 0.0704,-2.14751 0.13202,-2.97483 0.009,-0.18482 0.14962,-0.29044 0.14963,-0.11441 0.37846,-0.11441 0.24643,0 0.40486,0.13203 0.15842,0.12323 0.13201,0.32564 -0.0528,0.51928 -0.10559,2.0507 -0.044,1.53143 -0.044,2.70199 0,1.10896 0.044,1.2762 0.0616,0.25523 0.25524,0.44885 0.044,0.0616 0.044,0.15843 0,0.19363 -0.17603,0.35205 -0.17602,0.14963 -0.38725,0.14963 -0.17603,0 -0.31685,-0.0879 -0.13201,-0.0968 -0.23763,-0.22004 -0.0968,-0.13201 -0.15842,-0.34324 -0.22004,0.29924 -0.55449,0.48406 -0.32564,0.17603 -0.73931,0.17603 z m 0,-0.87132 q 0.29925,0 0.56329,-0.14082 0.27284,-0.14963 0.43127,-0.39607 0.16721,-0.24643 0.16721,-0.51047 v -1.32019 q -0.10559,-0.17603 -0.44886,-0.33445 -0.33444,-0.15843 -0.6865,-0.15843 -0.59848,0 -0.94174,0.38726 -0.33445,0.37846 -0.33445,1.05616 0,0.44887 0.16723,0.77451 0.17603,0.31684 0.45767,0.48408 0.29044,0.15842 0.62488,0.15842 z"
       style="font-style:normal;font-variant:normal;font-weight:600;font-stretch:normal;font-size:26.39999962px;line-height:1.25;font-family:Mali;-inkscape-font-specification:'Mali Semi-Bold';letter-spacing:0px;word-spacing:0px;fill:#ff0000;fill-opacity:1;stroke:none;stroke-width:0.33338201"
       id="path1908"
       inkscape:connector-curvature="0" />
    <path
       d="m 123.89944,274.49453 q -0.60728,0 -1.06495,-0.29044 -0.45767,-0.29045 -0.6689,-0.75691 -0.0616,-0.14963 -0.0528,-0.22883 0.0176,-0.15842 0.17602,-0.29045 0.15843,-0.13201 0.34325,-0.13201 0.12323,0 0.19362,0.0616 0.0704,0.0528 0.15843,0.15843 0.24643,0.31684 0.44006,0.46647 0.19363,0.14082 0.48408,0.14082 0.27283,0 0.45767,-0.12323 0.19362,-0.12323 0.19362,-0.32565 0,-0.22003 -0.21123,-0.33445 -0.20243,-0.12323 -0.6601,-0.28164 -0.46646,-0.15843 -0.75691,-0.29925 -0.28164,-0.14082 -0.49287,-0.40486 -0.20243,-0.27283 -0.20243,-0.6865 0,-0.40486 0.22884,-0.71289 0.22883,-0.30806 0.61609,-0.47527 0.39605,-0.16723 0.86252,-0.16723 0.49288,0 0.85372,0.18483 0.36966,0.18482 0.56328,0.49287 0.19363,0.29924 0.19363,0.6513 0,0.22002 -0.11441,0.32564 -0.10559,0.10559 -0.36086,0.10559 -0.24643,0 -0.33445,-0.0793 -0.0793,-0.0793 -0.10559,-0.22004 -0.0616,-0.58968 -0.69529,-0.58968 -0.31685,0 -0.47527,0.14082 -0.15842,0.13202 -0.15842,0.31685 0,0.22003 0.21123,0.34324 0.21123,0.12323 0.67769,0.28165 0.44887,0.14082 0.73931,0.28164 0.29045,0.14082 0.49287,0.40486 0.21123,0.26403 0.21123,0.6777 0,0.46646 -0.26404,0.77451 -0.25523,0.29925 -0.66009,0.44886 -0.39606,0.14082 -0.81852,0.14082 z"
       style="font-style:normal;font-variant:normal;font-weight:600;font-stretch:normal;font-size:26.39999962px;line-height:1.25;font-family:Mali;-inkscape-font-specification:'Mali Semi-Bold';letter-spacing:0px;word-spacing:0px;fill:#ff0000;fill-opacity:1;stroke:none;stroke-width:0.33338201"
       id="path1910"
       inkscape:connector-curvature="0" />
    <path
       sodipodi:nodetypes="ccccccccccccccsccccccccccscccccccccccccccccccscccccccccccccccccccccscccc"
       inkscape:connector-curvature="0"
       id="path1914"
       d="m 78.573601,261.52072 c 0.04478,-0.0571 0.130105,-0.11555 0.131771,-0.35621 0.0017,-0.24065 -0.08316,-0.30078 -0.127136,-0.35854 -0.04397,-0.0578 -0.08354,-0.0972 -0.126081,-0.13734 -0.08509,-0.0802 -0.181524,-0.15802 -0.295018,-0.24447 -0.22699,-0.17291 -0.515542,-0.37276 -0.806194,-0.57119 -0.290648,-0.19843 -0.58342,-0.39447 -0.806104,-0.54805 -0.111344,-0.0768 -0.205616,-0.14329 -0.268991,-0.19058 -0.0082,-0.006 -0.01027,-0.008 -0.01735,-0.0132 -0.0029,-0.009 -0.004,-0.0112 -0.0072,-0.0212 -0.02427,-0.0753 -0.05709,-0.18658 -0.09378,-0.31687 -0.07339,-0.2606 -0.163773,-0.60044 -0.257661,-0.93993 -0.09388,-0.33948 -0.19006,-0.67786 -0.280338,-0.94877 -0.04514,-0.13545 -0.08763,-0.25245 -0.136055,-0.35898 -0.02422,-0.0533 -0.04813,-0.10288 -0.08856,-0.16318 -0.04043,-0.0603 -0.07029,-0.16039 -0.298322,-0.23638 -0.228033,-0.076 -0.311261,-0.0134 -0.379697,0.0106 -0.06844,0.024 -0.117783,0.0494 -0.169026,0.0775 -0.102494,0.0562 -0.206362,0.12415 -0.323521,0.20551 -0.234314,0.16274 -0.513256,0.37557 -0.791479,0.59104 -0.278223,0.21548 -0.555187,0.43342 -0.769814,0.59804 -0.107316,0.0823 -0.19927,0.15171 -0.26375,0.19745 -0.0081,0.006 -0.01037,0.007 -0.01756,0.012 -0.0091,9e-5 -0.01184,6.5e-4 -0.02234,6.3e-4 -0.07902,-1.7e-4 -0.194353,-0.003 -0.329432,-0.009 -0.270157,-0.0107 -0.621836,-0.0289 -0.973239,-0.0444 -0.351406,-0.0155 -0.701817,-0.0285 -0.98698,-0.0263 -0.14258,10e-4 -0.266874,0.005 -0.383001,0.0187 -0.05807,0.007 -0.113392,0.0132 -0.183151,0.0331 -0.06976,0.0199 -0.173687,0.018 -0.316281,0.2117 -0.142605,0.19368 -0.109449,0.29221 -0.107774,0.36482 0.0017,0.0726 0.01083,0.12728 0.02171,0.18478 0.02174,0.115 0.05507,0.23489 0.09616,0.37163 0.08217,0.27348 0.197584,0.60523 0.31628,0.93684 0.118701,0.3316 0.240526,0.6626 0.330565,0.91791 0.04502,0.12765 0.08164,0.23654 0.105168,0.3121 0.0032,0.0102 0.004,0.0131 0.0067,0.022 -0.0027,0.008 -0.0033,0.0112 -0.0064,0.0209 -0.02457,0.0752 -0.06336,0.18307 -0.110149,0.31008 -0.09357,0.254 -0.219697,0.58352 -0.34299,0.9134 -0.123293,0.32989 -0.243461,0.6598 -0.329426,0.93208 -0.04298,0.13615 -0.07797,0.25579 -0.101314,0.37047 -0.01167,0.0573 -0.02129,0.11159 -0.02398,0.18417 -0.0027,0.0726 -0.03708,0.17133 0.102814,0.36702 0.139897,0.1957 0.243969,0.19373 0.313447,0.21458 0.06947,0.0208 0.124127,0.0292 0.182092,0.0366 0.11593,0.0148 0.239908,0.0205 0.382461,0.0236 0.285102,0.006 0.636108,-7.6e-4 0.987693,-0.0113 0.351581,-0.0105 0.702293,-0.0242 0.972568,-0.0311 0.13514,-0.003 0.251452,-0.005 0.330471,-0.004 0.01,1.2e-4 0.01252,7.3e-4 0.02125,9.3e-4 0.0075,0.005 0.01005,0.007 0.01866,0.013 0.06384,0.0466 0.154488,0.11711 0.260651,0.20093 0.212321,0.16765 0.486145,0.38985 0.76135,0.60926 0.275204,0.21942 0.551003,0.43521 0.783035,0.60126 0.116018,0.083 0.219172,0.15282 0.320876,0.21051 0.05085,0.0288 0.100037,0.055 0.168136,0.08 0.0681,0.025 0.150659,0.0887 0.379719,0.016 0.229063,-0.0727 0.259898,-0.17173 0.301164,-0.23145 0.04126,-0.0597 0.06612,-0.10998 0.09107,-0.16289 0.04991,-0.10583 0.09343,-0.2223 0.14045,-0.3571 0.09403,-0.26959 0.195346,-0.60595 0.29394,-0.94407 0.09859,-0.33811 0.194467,-0.67708 0.271469,-0.93661 0.0385,-0.12976 0.07233,-0.24034 0.09764,-0.31531 0.0032,-0.01 0.0043,-0.012 0.0072,-0.0204 0.0072,-0.005 0.0089,-0.007 0.01732,-0.0133 0.06403,-0.0464 0.160076,-0.11158 0.272472,-0.18677 0.224796,-0.15039 0.520178,-0.34216 0.813557,-0.53644 0.293379,-0.19428 0.583322,-0.39047 0.812692,-0.56013 0.114685,-0.0848 0.213304,-0.16165 0.299498,-0.24069 0.0431,-0.0395 0.08332,-0.0777 0.128093,-0.13483 z"
       style="color:#000000;font-style:normal;font-variant:normal;font-weight:normal;font-stretch:normal;font-size:medium;line-height:normal;font-family:sans-serif;font-variant-ligatures:normal;font-variant-position:normal;font-variant-caps:normal;font-variant-numeric:normal;font-variant-alternates:normal;font-feature-settings:normal;text-indent:0;text-align:start;text-decoration:none;text-decoration-line:none;text-decoration-style:solid;text-decoration-color:#000000;letter-spacing:normal;word-spacing:normal;text-transform:none;writing-mode:lr-tb;direction:ltr;text-orientation:mixed;dominant-baseline:auto;baseline-shift:baseline;text-anchor:start;white-space:normal;shape-padding:0;clip-rule:nonzero;display:inline;overflow:visible;visibility:visible;opacity:1;isolation:auto;mix-blend-mode:normal;color-interpolation:sRGB;color-interpolation-filters:linearRGB;solid-color:#000000;solid-opacity:1;vector-effect:none;fill:#ff0000;fill-opacity:1;fill-rule:nonzero;stroke:none;stroke-width:0.99898839;stroke-linecap:round;stroke-linejoin:miter;stroke-miterlimit:4;stroke-dasharray:none;stroke-dashoffset:0;stroke-opacity:1;color-rendering:auto;image-rendering:auto;shape-rendering:auto;text-rendering:auto;enable-background:accumulate" />
    <path
       style="color:#000000;font-style:normal;font-variant:normal;font-weight:normal;font-stretch:normal;font-size:medium;line-height:normal;font-family:sans-serif;font-variant-ligatures:normal;font-variant-position:normal;font-variant-caps:normal;font-variant-numeric:normal;font-variant-alternates:normal;font-feature-settings:normal;text-indent:0;text-align:start;text-decoration:none;text-decoration-line:none;text-decoration-style:solid;text-decoration-color:#000000;letter-spacing:normal;word-spacing:normal;text-transform:none;writing-mode:lr-tb;direction:ltr;text-orientation:mixed;dominant-baseline:auto;baseline-shift:baseline;text-anchor:start;white-space:normal;shape-padding:0;clip-rule:nonzero;display:inline;overflow:visible;visibility:visible;opacity:1;isolation:auto;mix-blend-mode:normal;color-interpolation:sRGB;color-interpolation-filters:linearRGB;solid-color:#000000;solid-opacity:1;vector-effect:none;fill:#ff0000;fill-opacity:1;fill-rule:nonzero;stroke:none;stroke-width:0.99898839;stroke-linecap:round;stroke-linejoin:miter;stroke-miterlimit:4;stroke-dasharray:none;stroke-dashoffset:0;stroke-opacity:1;color-rendering:auto;image-rendering:auto;shape-rendering:auto;text-rendering:auto;enable-background:accumulate"
       d="m 91.45214,263.82071 c 0.06733,-0.0271 0.17045,-0.035 0.292222,-0.2426 0.121798,-0.20756 0.07837,-0.30207 0.06917,-0.37408 -0.0092,-0.072 -0.02375,-0.12594 -0.04052,-0.18198 -0.03359,-0.112 -0.07819,-0.22761 -0.133258,-0.35922 -0.110124,-0.26324 -0.260093,-0.58059 -0.41259,-0.89777 -0.152493,-0.31716 -0.308021,-0.63333 -0.424081,-0.87767 -0.05803,-0.12219 -0.106424,-0.2269 -0.137663,-0.29955 -0.0041,-0.009 -0.0049,-0.0121 -0.0084,-0.0201 0.002,-0.009 0.0021,-0.0117 0.0044,-0.022 0.01663,-0.0773 0.04385,-0.19013 0.07722,-0.32131 0.06674,-0.26238 0.158388,-0.60188 0.246824,-0.94283 0.08844,-0.34094 0.174333,-0.68208 0.231605,-0.96183 0.02863,-0.13987 0.05034,-0.26244 0.06166,-0.37891 0.0057,-0.0583 0.0098,-0.11317 0.0049,-0.1856 -0.0049,-0.0724 0.01932,-0.17405 -0.140164,-0.35387 -0.159483,-0.17984 -0.26286,-0.16724 -0.334128,-0.18067 -0.07127,-0.0134 -0.126703,-0.0161 -0.185131,-0.0174 -0.116862,-0.003 -0.240789,0.004 -0.382932,0.0162 -0.284292,0.0238 -0.632278,0.0686 -0.980961,0.11611 -0.348688,0.0475 -0.697516,0.0978 -0.965698,0.13301 -0.134089,0.0176 -0.248428,0.0317 -0.32714,0.0391 -0.01001,10e-4 -0.01248,8.7e-4 -0.02121,0.002 -0.0079,-0.004 -0.01058,-0.005 -0.01966,-0.0106 -0.06835,-0.0396 -0.166815,-0.0998 -0.280796,-0.17251 -0.228613,-0.14434 -0.524076,-0.33594 -0.82065,-0.52507 -0.296577,-0.18912 -0.593541,-0.37559 -0.8416,-0.51626 -0.123978,-0.0704 -0.23362,-0.12911 -0.341038,-0.17531 -0.05379,-0.023 -0.104801,-0.0453 -0.175164,-0.0629 -0.07036,-0.0177 -0.159417,-0.0713 -0.379757,0.0252 -0.22034,0.0964 -0.240891,0.19833 -0.275745,0.26205 -0.03483,0.0637 -0.05426,0.11565 -0.07359,0.17088 -0.03867,0.11047 -0.06975,0.23096 -0.102538,0.36992 -0.06558,0.27793 -0.131502,0.62294 -0.194513,0.96947 -0.063,0.34653 -0.122999,0.69409 -0.172678,0.96022 -0.02484,0.13306 -0.04757,0.24567 -0.06497,0.32287 -0.0023,0.0104 -0.0031,0.0133 -0.0052,0.0224 -0.0063,0.006 -0.0085,0.008 -0.01599,0.0149 -0.05888,0.0528 -0.146406,0.12686 -0.250432,0.21346 -0.208034,0.17319 -0.482023,0.3955 -0.753738,0.61954 -0.271719,0.22404 -0.540743,0.44967 -0.751331,0.64249 -0.105297,0.0964 -0.195419,0.18253 -0.272975,0.27018 -0.03876,0.0438 -0.07423,0.086 -0.112853,0.1475 -0.03864,0.0615 -0.117777,0.12984 -0.09447,0.36926 0.0233,0.23943 0.114418,0.28976 0.164163,0.34255 0.04976,0.0528 0.0929,0.0874 0.139396,0.12275 0.093,0.0708 0.197517,0.1377 0.319421,0.21166 0.243906,0.14775 0.551266,0.3174 0.861017,0.48407 0.309728,0.16669 0.620304,0.33018 0.857819,0.45935 0.118535,0.065 0.220264,0.12139 0.288196,0.16177 0.0086,0.005 0.01048,0.007 0.01794,0.0114 0.004,0.008 0.0052,0.0111 0.0097,0.0206 0.03199,0.0723 0.07524,0.17866 0.125266,0.30433 0.10005,0.25135 0.226089,0.58069 0.354718,0.90831 0.128624,0.32763 0.259578,0.65241 0.377498,0.91223 0.05898,0.12988 0.113399,0.24193 0.172632,0.34274 0.02964,0.0504 0.05913,0.0976 0.10561,0.15335 0.04648,0.0557 0.08612,0.15215 0.320846,0.20372 0.234725,0.0516 0.310944,-0.0188 0.376541,-0.0499 0.06558,-0.0311 0.112252,-0.0622 0.160314,-0.0955 0.09614,-0.0667 0.192063,-0.14581 0.300183,-0.23904 0.216228,-0.18645 0.47215,-0.42709 0.726595,-0.67062 0.254436,-0.24351 0.506953,-0.48913 0.703404,-0.67539 0.09822,-0.0931 0.18281,-0.17198 0.242214,-0.22425 0.0078,-0.007 0.0097,-0.008 0.01644,-0.0141 0.0087,-7.3e-4 0.01121,-0.002 0.02165,-0.003 0.07865,-0.008 0.194419,-0.0166 0.329352,-0.0255 0.269874,-0.0179 0.621568,-0.0362 0.972781,-0.0578 0.351214,-0.0216 0.700407,-0.0465 0.983877,-0.0788 0.14172,-0.0161 0.265552,-0.0333 0.379718,-0.0587 0.05708,-0.0127 0.111007,-0.0256 0.178347,-0.0527 z"
       id="path1916"
       inkscape:connector-curvature="0"
       sodipodi:nodetypes="ccccccccccccccsccccccccccscccccccccccccccccccscccccccccccccccccccccscccc" />
    <path
       sodipodi:nodetypes="ccccccccccccccsccccccccccscccccccccccccccccccscccccccccccccccccccccscccc"
       inkscape:connector-curvature="0"
       id="path1918"
       d="m 101.96788,265.40159 c 0.0719,0.0102 0.16512,0.0549 0.37438,-0.064 0.2094,-0.11859 0.21888,-0.22244 0.24693,-0.28938 0.0281,-0.067 0.0424,-0.12091 0.0559,-0.17785 0.0269,-0.1138 0.0461,-0.23621 0.0642,-0.37773 0.0362,-0.28304 0.065,-0.63285 0.0916,-0.98378 0.0265,-0.35092 0.0499,-0.70249 0.0716,-0.97213 0.0108,-0.13483 0.0213,-0.24971 0.0306,-0.32824 0.001,-0.0101 0.002,-0.0129 0.003,-0.0216 0.006,-0.007 0.008,-0.009 0.0148,-0.0168 0.0531,-0.0587 0.13304,-0.14274 0.22753,-0.23966 0.18899,-0.19385 0.43811,-0.44205 0.68517,-0.6931 0.24706,-0.25104 0.49202,-0.50353 0.68149,-0.71717 0.0947,-0.10681 0.17482,-0.20211 0.24286,-0.29731 0.0341,-0.0476 0.065,-0.0931 0.097,-0.15829 0.032,-0.0652 0.10376,-0.14107 0.0555,-0.37654 -0.0482,-0.23549 -0.14403,-0.27626 -0.19903,-0.32353 -0.055,-0.0473 -0.10167,-0.0773 -0.15163,-0.10763 -0.0999,-0.0607 -0.2107,-0.11664 -0.33974,-0.17742 -0.25809,-0.12156 -0.58188,-0.25671 -0.90759,-0.38992 -0.32573,-0.13321 -0.65295,-0.2641 -0.90283,-0.36766 -0.12493,-0.0518 -0.23102,-0.0967 -0.30287,-0.12969 -0.009,-0.004 -0.0112,-0.005 -0.0192,-0.009 -0.005,-0.008 -0.006,-0.01 -0.0117,-0.019 -0.0394,-0.0685 -0.0946,-0.16982 -0.15692,-0.2898 -0.12581,-0.23931 -0.28589,-0.55297 -0.44817,-0.86505 -0.16228,-0.31207 -0.32623,-0.62204 -0.47071,-0.8679 -0.0722,-0.12298 -0.13777,-0.22862 -0.2077,-0.32234 -0.0351,-0.0468 -0.0681,-0.0916 -0.12024,-0.14206 -0.0521,-0.0505 -0.10243,-0.14142 -0.34148,-0.16806 -0.23903,-0.0267 -0.30778,0.0513 -0.369828,0.0891 -0.06202,0.0378 -0.104813,0.073 -0.149169,0.11119 -0.08872,0.0763 -0.175886,0.16514 -0.273761,0.26909 -0.195756,0.2079 -0.425353,0.47373 -0.653188,0.74233 -0.227823,0.2686 -0.453565,0.5396 -0.62965,0.74523 -0.08804,0.10281 -0.16403,0.18897 -0.217703,0.24713 -0.0072,0.008 -0.0093,0.01 -0.0157,0.0168 -0.0083,0.002 -0.01135,0.003 -0.0213,0.005 -0.07741,0.0163 -0.190223,0.0367 -0.323611,0.0596 -0.266756,0.046 -0.615192,0.10149 -0.962523,0.15966 -0.347339,0.0582 -0.693134,0.11906 -0.971918,0.18075 -0.139399,0.0308 -0.260505,0.0604 -0.371493,0.0975 -0.05546,0.0186 -0.107285,0.0374 -0.171486,0.0713 -0.06422,0.034 -0.166916,0.0535 -0.266442,0.27255 -0.09953,0.219 -0.04579,0.30815 -0.02911,0.37874 0.01672,0.0706 0.03678,0.1221 0.05935,0.176 0.04515,0.1078 0.1022,0.21801 0.170792,0.34302 0.137355,0.2499 0.318712,0.5505 0.503632,0.84972 0.184884,0.29922 0.372105,0.5961 0.513218,0.82672 0.07017,0.11553 0.130056,0.21526 0.168699,0.28419 0.0049,0.009 0.0056,0.0112 0.0098,0.0189 -5.8e-4,0.009 -0.001,0.0122 -0.0019,0.0227 -0.0084,0.0786 -0.02418,0.19235 -0.04368,0.32619 -0.03903,0.26771 -0.09455,0.61594 -0.14696,0.96398 -0.05242,0.34805 -0.101401,0.69479 -0.129189,0.97876 -0.01387,0.14198 -0.02276,0.26622 -0.02187,0.38314 4.84e-4,0.0584 0.0024,0.11414 0.01479,0.18561 0.0124,0.0715 -0.0015,0.17483 0.176003,0.33685 0.177492,0.16202 0.278672,0.13921 0.351024,0.14509 0.07233,0.006 0.128305,0.002 0.186602,-0.003 0.116606,-0.01 0.239232,-0.0302 0.379482,-0.0569 0.280487,-0.0534 0.622441,-0.1338 0.964559,-0.21748 0.342107,-0.0837 0.683602,-0.17012 0.946862,-0.2332 0.131626,-0.0315 0.244306,-0.0575 0.321887,-0.0731 0.01026,-0.002 0.01254,-0.002 0.02127,-0.004 0.0079,0.004 0.01051,0.004 0.02018,0.008 0.0722,0.0323 0.176669,0.0828 0.297984,0.14259 0.242639,0.11948 0.556407,0.2794 0.871347,0.43634 0.31494,0.15693 0.62982,0.30993 0.89143,0.42374 0.13079,0.0569 0.24665,0.10391 0.3582,0.13903 0.0558,0.0176 0.10894,0.0333 0.18081,0.0435 z"
       style="color:#000000;font-style:normal;font-variant:normal;font-weight:normal;font-stretch:normal;font-size:medium;line-height:normal;font-family:sans-serif;font-variant-ligatures:normal;font-variant-position:normal;font-variant-caps:normal;font-variant-numeric:normal;font-variant-alternates:normal;font-feature-settings:normal;text-indent:0;text-align:start;text-decoration:none;text-decoration-line:none;text-decoration-style:solid;text-decoration-color:#000000;letter-spacing:normal;word-spacing:normal;text-transform:none;writing-mode:lr-tb;direction:ltr;text-orientation:mixed;dominant-baseline:auto;baseline-shift:baseline;text-anchor:start;white-space:normal;shape-padding:0;clip-rule:nonzero;display:inline;overflow:visible;visibility:visible;opacity:1;isolation:auto;mix-blend-mode:normal;color-interpolation:sRGB;color-interpolation-filters:linearRGB;solid-color:#000000;solid-opacity:1;vector-effect:none;fill:#ff0000;fill-opacity:1;fill-rule:nonzero;stroke:none;stroke-width:0.99898839;stroke-linecap:round;stroke-linejoin:miter;stroke-miterlimit:4;stroke-dasharray:none;stroke-dashoffset:0;stroke-opacity:1;color-rendering:auto;image-rendering:auto;shape-rendering:auto;text-rendering:auto;enable-background:accumulate" />
    <path
       style="color:#000000;font-style:normal;font-variant:normal;font-weight:normal;font-stretch:normal;font-size:medium;line-height:normal;font-family:sans-serif;font-variant-ligatures:normal;font-variant-position:normal;font-variant-caps:normal;font-variant-numeric:normal;font-variant-alternates:normal;font-feature-settings:normal;text-indent:0;text-align:start;text-decoration:none;text-decoration-line:none;text-decoration-style:solid;text-decoration-color:#000000;letter-spacing:normal;word-spacing:normal;text-transform:none;writing-mode:lr-tb;direction:ltr;text-orientation:mixed;dominant-baseline:auto;baseline-shift:baseline;text-anchor:start;white-space:normal;shape-padding:0;clip-rule:nonzero;display:inline;overflow:visible;visibility:visible;opacity:1;isolation:auto;mix-blend-mode:normal;color-interpolation:sRGB;color-interpolation-filters:linearRGB;solid-color:#000000;solid-opacity:1;vector-effect:none;fill:#ff0000;fill-opacity:1;fill-rule:nonzero;stroke:none;stroke-width:0.99898839;stroke-linecap:round;stroke-linejoin:miter;stroke-miterlimit:4;stroke-dasharray:none;stroke-dashoffset:0;stroke-opacity:1;color-rendering:auto;image-rendering:auto;shape-rendering:auto;text-rendering:auto;enable-background:accumulate"
       d="m 112.53105,265.8394 c 0.0571,0.0448 0.11555,0.1301 0.35621,0.13177 0.24065,0.002 0.30078,-0.0832 0.35854,-0.12714 0.0578,-0.044 0.0972,-0.0835 0.13734,-0.12608 0.0802,-0.0851 0.15802,-0.18152 0.24447,-0.29502 0.17291,-0.22699 0.37276,-0.51554 0.57119,-0.80619 0.19843,-0.29065 0.39447,-0.58342 0.54805,-0.80611 0.0768,-0.11134 0.14329,-0.20561 0.19058,-0.26899 0.006,-0.008 0.008,-0.0103 0.0132,-0.0173 0.009,-0.003 0.0112,-0.004 0.0212,-0.007 0.0753,-0.0243 0.18658,-0.0571 0.31687,-0.0938 0.2606,-0.0734 0.60044,-0.16377 0.93993,-0.25766 0.33948,-0.0939 0.67786,-0.19006 0.94877,-0.28034 0.13545,-0.0451 0.25245,-0.0876 0.35898,-0.13605 0.0533,-0.0242 0.10288,-0.0481 0.16318,-0.0886 0.0603,-0.0404 0.16039,-0.0703 0.23638,-0.29832 0.076,-0.22804 0.0134,-0.31127 -0.0106,-0.3797 -0.024,-0.0684 -0.0494,-0.11778 -0.0775,-0.16903 -0.0562,-0.10249 -0.12415,-0.20636 -0.20551,-0.32352 -0.16274,-0.23431 -0.37557,-0.51325 -0.59104,-0.79148 -0.21548,-0.27822 -0.43342,-0.55518 -0.59804,-0.76981 -0.0823,-0.10732 -0.15171,-0.19927 -0.19745,-0.26375 -0.006,-0.008 -0.007,-0.0104 -0.012,-0.0176 -9e-5,-0.009 -6.5e-4,-0.0118 -6.3e-4,-0.0223 1.7e-4,-0.079 0.003,-0.19435 0.009,-0.32943 0.0107,-0.27016 0.0289,-0.62184 0.0444,-0.97325 0.0155,-0.3514 0.0285,-0.70181 0.0263,-0.98698 -10e-4,-0.14258 -0.005,-0.26687 -0.0187,-0.383 -0.007,-0.0581 -0.0132,-0.11339 -0.0331,-0.18315 -0.0199,-0.0698 -0.018,-0.17368 -0.2117,-0.31628 -0.19368,-0.1426 -0.29221,-0.10945 -0.36482,-0.10777 -0.0726,0.002 -0.12728,0.0108 -0.18478,0.0217 -0.115,0.0217 -0.23489,0.0551 -0.37163,0.0962 -0.27348,0.0822 -0.60523,0.19758 -0.93684,0.31628 -0.3316,0.1187 -0.6626,0.24052 -0.91791,0.33056 -0.12765,0.045 -0.23654,0.0816 -0.3121,0.10517 -0.0102,0.003 -0.0131,0.004 -0.022,0.007 -0.008,-0.003 -0.0112,-0.003 -0.0209,-0.006 -0.0752,-0.0246 -0.18307,-0.0634 -0.31008,-0.11015 -0.254,-0.0936 -0.58352,-0.2197 -0.9134,-0.34299 -0.32989,-0.12329 -0.6598,-0.24346 -0.93208,-0.32942 -0.13615,-0.043 -0.25579,-0.078 -0.37047,-0.10132 -0.0573,-0.0117 -0.11159,-0.0213 -0.18417,-0.024 -0.0726,-0.003 -0.17133,-0.0371 -0.36702,0.10282 -0.1957,0.13989 -0.19373,0.24396 -0.21458,0.31344 -0.0208,0.0695 -0.0292,0.12413 -0.0366,0.18209 -0.0148,0.11593 -0.0205,0.23991 -0.0236,0.38247 -0.006,0.2851 7.6e-4,0.6361 0.0113,0.98769 0.0105,0.35158 0.0242,0.70229 0.0311,0.97257 0.003,0.13514 0.005,0.25145 0.004,0.33047 -1.2e-4,0.01 -7.3e-4,0.0125 -9.3e-4,0.0212 -0.005,0.008 -0.007,0.0101 -0.013,0.0187 -0.0466,0.0638 -0.11711,0.15449 -0.20093,0.26065 -0.16765,0.21232 -0.38985,0.48615 -0.60926,0.76135 -0.21942,0.27521 -0.43521,0.551 -0.60126,0.78304 -0.083,0.11601 -0.15282,0.21917 -0.21051,0.32087 -0.0288,0.0508 -0.055,0.10004 -0.08,0.16814 -0.025,0.0681 -0.0887,0.15066 -0.016,0.37972 0.0727,0.22906 0.17173,0.2599 0.23145,0.30116 0.0597,0.0413 0.10998,0.0661 0.16289,0.0911 0.10583,0.0499 0.2223,0.0934 0.3571,0.14045 0.26959,0.094 0.60595,0.19535 0.94407,0.29394 0.33811,0.0986 0.67708,0.19447 0.93661,0.27147 0.12976,0.0385 0.24034,0.0723 0.31531,0.0976 0.01,0.003 0.012,0.004 0.0204,0.007 0.005,0.007 0.007,0.009 0.0133,0.0173 0.0464,0.064 0.11158,0.16008 0.18677,0.27247 0.15039,0.2248 0.34216,0.52018 0.53644,0.81356 0.19428,0.29338 0.39047,0.58332 0.56013,0.81269 0.0848,0.11469 0.16165,0.21331 0.24069,0.2995 0.0395,0.0431 0.0777,0.0833 0.13483,0.1281 z"
       id="path1920"
       inkscape:connector-curvature="0"
       sodipodi:nodetypes="ccccccccccccccsccccccccccscccccccccccccccccccscccccccccccccccccccccscccc" />
    <path
       sodipodi:nodetypes="ccccccccccccccsccccccccccscccccccccccccccccccscccccccccccccccccccccscccc"
       inkscape:connector-curvature="0"
       id="path1922"
       d="m 123.15939,265.01753 c 0.027,0.0673 0.035,0.17044 0.2426,0.29222 0.20741,0.12205 0.30208,0.0783 0.37408,0.0692 0.0721,-0.009 0.12592,-0.0237 0.18198,-0.0405 0.112,-0.0336 0.22761,-0.0782 0.35922,-0.13326 0.26324,-0.11012 0.58059,-0.26009 0.89776,-0.41258 0.31717,-0.1525 0.63333,-0.30802 0.87768,-0.42409 0.12218,-0.058 0.2269,-0.10642 0.29955,-0.13766 0.009,-0.004 0.0121,-0.005 0.0201,-0.008 0.009,0.002 0.0117,0.002 0.0219,0.005 0.0774,0.0166 0.19013,0.0438 0.32131,0.0772 0.26239,0.0667 0.60189,0.15839 0.94284,0.24682 0.34095,0.0884 0.68207,0.17433 0.96183,0.2316 0.13985,0.0287 0.26243,0.0504 0.37891,0.0617 0.0583,0.006 0.11314,0.01 0.18562,0.005 0.0724,-0.005 0.17405,0.0193 0.35387,-0.14016 0.17983,-0.15949 0.16724,-0.26287 0.18067,-0.33413 0.0134,-0.0712 0.0161,-0.1267 0.0174,-0.18514 0.003,-0.11685 -0.004,-0.24078 -0.0162,-0.38293 -0.0238,-0.28429 -0.0686,-0.63227 -0.11612,-0.98096 -0.0475,-0.34868 -0.0978,-0.69751 -0.13301,-0.96569 -0.0176,-0.1341 -0.0318,-0.24843 -0.0391,-0.32714 -0.001,-0.01 -8.6e-4,-0.0125 -0.002,-0.0213 0.004,-0.008 0.005,-0.0105 0.0106,-0.0196 0.0396,-0.0683 0.0998,-0.16681 0.17251,-0.2808 0.14435,-0.22861 0.33595,-0.52408 0.52508,-0.82066 0.18912,-0.29657 0.37558,-0.59353 0.51626,-0.8416 0.0704,-0.12397 0.12911,-0.23361 0.17531,-0.34103 0.023,-0.0538 0.0453,-0.1048 0.0629,-0.17517 0.0177,-0.0704 0.0713,-0.15941 -0.0252,-0.37975 -0.0964,-0.22034 -0.19834,-0.24089 -0.26206,-0.27574 -0.0639,-0.0346 -0.11563,-0.0543 -0.17087,-0.0736 -0.11045,-0.0387 -0.23097,-0.0697 -0.36994,-0.10251 -0.27794,-0.0656 -0.62294,-0.1315 -0.96947,-0.19451 -0.34653,-0.063 -0.69409,-0.123 -0.96021,-0.17268 -0.13305,-0.0249 -0.24565,-0.0476 -0.32288,-0.065 -0.0103,-0.002 -0.0133,-0.003 -0.0225,-0.005 -0.005,-0.007 -0.008,-0.008 -0.0151,-0.0156 -0.0528,-0.0589 -0.12684,-0.14645 -0.21346,-0.25044 -0.17317,-0.20806 -0.39549,-0.48202 -0.61953,-0.75374 -0.22405,-0.27171 -0.44968,-0.54074 -0.6425,-0.75132 -0.0964,-0.10532 -0.18252,-0.19545 -0.27017,-0.27298 -0.0438,-0.0388 -0.086,-0.0742 -0.1475,-0.11287 -0.0614,-0.0389 -0.12983,-0.1178 -0.36926,-0.0945 -0.23943,0.0233 -0.28975,0.11441 -0.34255,0.16416 -0.0528,0.0498 -0.0874,0.0929 -0.12274,0.13939 -0.0708,0.093 -0.13771,0.19752 -0.21168,0.31943 -0.14774,0.24391 -0.31739,0.55126 -0.48405,0.86102 -0.1667,0.30973 -0.33019,0.6203 -0.45936,0.85782 -0.065,0.11853 -0.12139,0.22026 -0.16177,0.28819 -0.005,0.009 -0.007,0.0105 -0.0114,0.0179 -0.008,0.004 -0.0111,0.005 -0.0206,0.01 -0.0723,0.032 -0.17867,0.0752 -0.30434,0.12527 -0.25135,0.10005 -0.58069,0.22609 -0.90831,0.35472 -0.32762,0.12863 -0.6524,0.25957 -0.91222,0.3775 -0.12989,0.059 -0.24193,0.1134 -0.34274,0.17263 -0.0503,0.0296 -0.0977,0.0591 -0.15336,0.10561 -0.0557,0.0465 -0.15214,0.0861 -0.20371,0.32085 -0.0516,0.23472 0.0188,0.31094 0.0499,0.37653 0.0311,0.0656 0.0622,0.11224 0.0955,0.16034 0.0667,0.0961 0.14581,0.19204 0.23903,0.30019 0.18647,0.2162 0.42709,0.47215 0.67062,0.72659 0.24351,0.25445 0.48913,0.50696 0.67539,0.70341 0.0931,0.0982 0.17199,0.18278 0.22427,0.24217 0.007,0.008 0.008,0.009 0.0142,0.0163 8.3e-4,0.009 0.002,0.0113 0.003,0.0216 0.008,0.0786 0.0166,0.19442 0.0255,0.32935 0.0178,0.26988 0.0362,0.62157 0.0578,0.97278 0.0216,0.35122 0.0465,0.70041 0.0787,0.98388 0.0161,0.14172 0.0333,0.26556 0.0587,0.37972 0.0127,0.0571 0.0256,0.11099 0.0527,0.17835 z"
       style="color:#000000;font-style:normal;font-variant:normal;font-weight:normal;font-stretch:normal;font-size:medium;line-height:normal;font-family:sans-serif;font-variant-ligatures:normal;font-variant-position:normal;font-variant-caps:normal;font-variant-numeric:normal;font-variant-alternates:normal;font-feature-settings:normal;text-indent:0;text-align:start;text-decoration:none;text-decoration-line:none;text-decoration-style:solid;text-decoration-color:#000000;letter-spacing:normal;word-spacing:normal;text-transform:none;writing-mode:lr-tb;direction:ltr;text-orientation:mixed;dominant-baseline:auto;baseline-shift:baseline;text-anchor:start;white-space:normal;shape-padding:0;clip-rule:nonzero;display:inline;overflow:visible;visibility:visible;opacity:1;isolation:auto;mix-blend-mode:normal;color-interpolation:sRGB;color-interpolation-filters:linearRGB;solid-color:#000000;solid-opacity:1;vector-effect:none;fill:#ff0000;fill-opacity:1;fill-rule:nonzero;stroke:none;stroke-width:0.99898839;stroke-linecap:round;stroke-linejoin:miter;stroke-miterlimit:4;stroke-dasharray:none;stroke-dashoffset:0;stroke-opacity:1;color-rendering:auto;image-rendering:auto;shape-rendering:auto;text-rendering:auto;enable-background:accumulate" />
    <circle
       r="1.0502596"
       cy="207.5047"
       cx="183.16075"
       id="circle1867"
       style="fill:none;fill-opacity:1;stroke:#000000;stroke-width:0.09948079;stroke-linecap:square;stroke-linejoin:round;stroke-miterlimit:4;stroke-dasharray:none;stroke-opacity:1" />
  </g>
</svg>
