<?xml version="1.0" encoding="UTF-8" standalone="no"?>
<!-- Created with Inkscape (http://www.inkscape.org/) -->

<svg
   xmlns:dc="http://purl.org/dc/elements/1.1/"
   xmlns:cc="http://creativecommons.org/ns#"
   xmlns:rdf="http://www.w3.org/1999/02/22-rdf-syntax-ns#"
   xmlns:svg="http://www.w3.org/2000/svg"
   xmlns="http://www.w3.org/2000/svg"
   xmlns:sodipodi="http://sodipodi.sourceforge.net/DTD/sodipodi-0.dtd"
   xmlns:inkscape="http://www.inkscape.org/namespaces/inkscape"
   width="210mm"
   height="297mm"
   viewBox="0 0 210 297"
   version="1.1"
   id="svg4008"
   inkscape:version="0.92.3 (2405546, 2018-03-11)"
   sodipodi:docname="lrs_bottom_case.svg">
  <defs
     id="defs4002" />
  <sodipodi:namedview
     id="base"
     pagecolor="#ffffff"
     bordercolor="#666666"
     borderopacity="1.0"
     inkscape:pageopacity="0.0"
     inkscape:pageshadow="2"
     inkscape:zoom="0.98994949"
     inkscape:cx="150.94793"
     inkscape:cy="494.86938"
     inkscape:document-units="mm"
     inkscape:current-layer="layer1"
     showgrid="false"
     inkscape:window-width="2560"
     inkscape:window-height="1375"
     inkscape:window-x="0"
     inkscape:window-y="0"
     inkscape:window-maximized="1"
     showguides="true"
     inkscape:guide-bbox="true">
    <sodipodi:guide
       position="152.98586,287.07293"
       orientation="0,1"
       id="guide4613"
       inkscape:locked="false" />
    <sodipodi:guide
       position="200.04389,280.88357"
       orientation="1,0"
       id="guide4615"
       inkscape:locked="false" />
    <sodipodi:guide
       position="182.70424,218.98996"
       orientation="0,1"
       id="guide4617"
       inkscape:locked="false" />
    <sodipodi:guide
       position="36.014568,292.59332"
       orientation="1,0"
       id="guide4619"
       inkscape:locked="false" />
  </sodipodi:namedview>
  <metadata
     id="metadata4005">
    <rdf:RDF>
      <cc:Work
         rdf:about="">
        <dc:format>image/svg+xml</dc:format>
        <dc:type
           rdf:resource="http://purl.org/dc/dcmitype/StillImage" />
        <dc:title></dc:title>
      </cc:Work>
    </rdf:RDF>
  </metadata>
  <g
     inkscape:label="Layer 1"
     inkscape:groupmode="layer"
     id="layer1">
    <g
       id="g4631"
       transform="matrix(1.5712753,0,0,1.5712753,-23.594361,-58.980935)">
      <g
         style="fill:none;stroke:#ff0000"
         transform="translate(58.063594,-162.41978)"
         id="g3982">
        <path
           transform="matrix(-0.2407947,0.34719424,-0.34673188,-0.24119362,88.836035,256.34544)"
           inkscape:transform-center-y="0.09756404"
           inkscape:transform-center-x="-0.57199314"
           d="m 56.70966,173.30482 c 0.351214,-0.24031 5.309333,2.00578 5.734718,2.01781 0.425384,0.012 5.502501,-1.95031 5.839574,-1.69054 0.337074,0.25977 -0.266942,5.6693 -0.14693,6.07758 0.120012,0.40828 3.555218,4.63051 3.412328,5.03136 -0.142891,0.40085 -5.474312,1.49803 -5.825526,1.73834 -0.351213,0.2403 -3.305255,4.81212 -3.73064,4.80009 -0.425384,-0.012 -3.116368,-4.74346 -3.453442,-5.00323 -0.337073,-0.25977 -5.597978,-1.65646 -5.71799,-2.06474 -0.120012,-0.40828 3.54829,-4.42965 3.691181,-4.8305 0.14289,-0.40085 -0.154486,-5.83587 0.196727,-6.07617 z"
           inkscape:randomized="0"
           inkscape:rounded="0.07"
           inkscape:flatsided="false"
           sodipodi:arg2="-1.542528"
           sodipodi:arg1="-2.1708465"
           sodipodi:r2="6.1135879"
           sodipodi:r1="9.8496161"
           sodipodi:cy="181.43378"
           sodipodi:cx="62.27158"
           sodipodi:sides="5"
           id="path1474-4"
           style="fill:none;fill-opacity:1;stroke:#ff0000;stroke-width:2.05942988;stroke-linecap:round;stroke-miterlimit:4;stroke-dasharray:none;stroke-opacity:1"
           sodipodi:type="star" />
        <path
           sodipodi:type="star"
           style="fill:none;fill-opacity:1;stroke:#ff0000;stroke-width:2.05942988;stroke-linecap:round;stroke-miterlimit:4;stroke-dasharray:none;stroke-opacity:1"
           id="path1476-7"
           sodipodi:sides="5"
           sodipodi:cx="62.27158"
           sodipodi:cy="181.43378"
           sodipodi:r1="9.8496161"
           sodipodi:r2="6.1135879"
           sodipodi:arg1="-2.1708465"
           sodipodi:arg2="-1.542528"
           inkscape:flatsided="false"
           inkscape:rounded="0.07"
           inkscape:randomized="0"
           d="m 56.70966,173.30482 c 0.351214,-0.24031 5.309333,2.00578 5.734718,2.01781 0.425384,0.012 5.502501,-1.95031 5.839574,-1.69054 0.337074,0.25977 -0.266942,5.6693 -0.14693,6.07758 0.120012,0.40828 3.555218,4.63051 3.412328,5.03136 -0.142891,0.40085 -5.474312,1.49803 -5.825526,1.73834 -0.351213,0.2403 -3.305255,4.81212 -3.73064,4.80009 -0.425384,-0.012 -3.116368,-4.74346 -3.453442,-5.00323 -0.337073,-0.25977 -5.597978,-1.65646 -5.71799,-2.06474 -0.120012,-0.40828 3.54829,-4.42965 3.691181,-4.8305 0.14289,-0.40085 -0.154486,-5.83587 0.196727,-6.07617 z"
           inkscape:transform-center-x="0.15587423"
           inkscape:transform-center-y="0.29559067"
           transform="matrix(-0.38213144,0.18028168,-0.17968181,-0.38224574,77.582864,292.41295)" />
        <path
           transform="matrix(-0.42107638,-0.03493721,0.03551386,-0.42087543,51.186644,312.85997)"
           inkscape:transform-center-y="-0.05003843"
           inkscape:transform-center-x="-0.16021007"
           d="m 56.70966,173.30482 c 0.351214,-0.24031 5.309333,2.00578 5.734718,2.01781 0.425384,0.012 5.502501,-1.95031 5.839574,-1.69054 0.337074,0.25977 -0.266942,5.6693 -0.14693,6.07758 0.120012,0.40828 3.555218,4.63051 3.412328,5.03136 -0.142891,0.40085 -5.474312,1.49803 -5.825526,1.73834 -0.351213,0.2403 -3.305255,4.81212 -3.73064,4.80009 -0.425384,-0.012 -3.116368,-4.74346 -3.453442,-5.00323 -0.337073,-0.25977 -5.597978,-1.65646 -5.71799,-2.06474 -0.120012,-0.40828 3.54829,-4.42965 3.691181,-4.8305 0.14289,-0.40085 -0.154486,-5.83587 0.196727,-6.07617 z"
           inkscape:randomized="0"
           inkscape:rounded="0.07"
           inkscape:flatsided="false"
           sodipodi:arg2="-1.542528"
           sodipodi:arg1="-2.1708465"
           sodipodi:r2="6.1135879"
           sodipodi:r1="9.8496161"
           sodipodi:cy="181.43378"
           sodipodi:cx="62.27158"
           sodipodi:sides="5"
           id="path1478-4"
           style="fill:none;fill-opacity:1;stroke:#ff0000;stroke-width:2.05942988;stroke-linecap:round;stroke-miterlimit:4;stroke-dasharray:none;stroke-opacity:1"
           sodipodi:type="star" />
        <path
           sodipodi:type="star"
           style="fill:none;fill-opacity:1;stroke:#ff0000;stroke-width:2.05942988;stroke-linecap:round;stroke-miterlimit:4;stroke-dasharray:none;stroke-opacity:1"
           id="path1480-8"
           sodipodi:sides="5"
           sodipodi:cx="62.27158"
           sodipodi:cy="181.43378"
           sodipodi:r1="9.8496161"
           sodipodi:r2="6.1135879"
           sodipodi:arg1="-2.1708465"
           sodipodi:arg2="-1.542528"
           inkscape:flatsided="false"
           inkscape:rounded="0.07"
           inkscape:randomized="0"
           d="m 56.70966,173.30482 c 0.351214,-0.24031 5.309333,2.00578 5.734718,2.01781 0.425384,0.012 5.502501,-1.95031 5.839574,-1.69054 0.337074,0.25977 -0.266942,5.6693 -0.14693,6.07758 0.120012,0.40828 3.555218,4.63051 3.412328,5.03136 -0.142891,0.40085 -5.474312,1.49803 -5.825526,1.73834 -0.351213,0.2403 -3.305255,4.81212 -3.73064,4.80009 -0.425384,-0.012 -3.116368,-4.74346 -3.453442,-5.00323 -0.337073,-0.25977 -5.597978,-1.65646 -5.71799,-2.06474 -0.120012,-0.40828 3.54829,-4.42965 3.691181,-4.8305 0.14289,-0.40085 -0.154486,-5.83587 0.196727,-6.07617 z"
           inkscape:transform-center-x="0.097566226"
           inkscape:transform-center-y="0.57199132"
           transform="matrix(-0.34719424,-0.2407947,0.24119362,-0.34673188,19.486421,312.2078)" />
        <path
           transform="matrix(-0.07523583,-0.41577096,0.41572611,-0.07462682,-18.898242,273.61727)"
           inkscape:transform-center-y="-0.11945092"
           inkscape:transform-center-x="-0.012006198"
           d="m 56.70966,173.30482 c 0.351214,-0.24031 5.309333,2.00578 5.734718,2.01781 0.425384,0.012 5.502501,-1.95031 5.839574,-1.69054 0.337074,0.25977 -0.266942,5.6693 -0.14693,6.07758 0.120012,0.40828 3.555218,4.63051 3.412328,5.03136 -0.142891,0.40085 -5.474312,1.49803 -5.825526,1.73834 -0.351213,0.2403 -3.305255,4.81212 -3.73064,4.80009 -0.425384,-0.012 -3.116368,-4.74346 -3.453442,-5.00323 -0.337073,-0.25977 -5.597978,-1.65646 -5.71799,-2.06474 -0.120012,-0.40828 3.54829,-4.42965 3.691181,-4.8305 0.14289,-0.40085 -0.154486,-5.83587 0.196727,-6.07617 z"
           inkscape:randomized="0"
           inkscape:rounded="0.07"
           inkscape:flatsided="false"
           sodipodi:arg2="-1.542528"
           sodipodi:arg1="-2.1708465"
           sodipodi:r2="6.1135879"
           sodipodi:r1="9.8496161"
           sodipodi:cy="181.43378"
           sodipodi:cx="62.27158"
           sodipodi:sides="5"
           id="path1482-5"
           style="fill:none;fill-opacity:1;stroke:#ff0000;stroke-width:2.05942988;stroke-linecap:round;stroke-miterlimit:4;stroke-dasharray:none;stroke-opacity:1"
           sodipodi:type="star" />
      </g>
      <flowRoot
         transform="matrix(0.45206946,0,0,0.45206946,62.449834,-322.94513)"
         style="font-style:normal;font-weight:normal;font-size:40px;line-height:1.25;font-family:sans-serif;letter-spacing:0px;word-spacing:0px;fill:#ff0000;fill-opacity:1;stroke:none"
         id="flowRoot1496-8"
         xml:space="preserve"><flowRegion
           style="fill:#ff0000;stroke:none"
           id="flowRegion1498-2"><rect
             style="fill:#ff0000;stroke:none"
             y="859.66254"
             x="21.071428"
             height="165"
             width="214.28572"
             id="rect1500-6" /></flowRegion><flowPara
           id="flowPara1508-0"
           style="font-style:normal;font-variant:normal;font-weight:600;font-stretch:normal;font-size:13.33333397px;line-height:8px;font-family:Mali;-inkscape-font-specification:'Mali Semi-Bold';fill:#ff0000;stroke:none">star boards</flowPara></flowRoot>    </g>
    <rect
       style="fill:none;fill-opacity:1;stroke:#000000;stroke-width:0.35893938;stroke-linecap:round;stroke-linejoin:round;stroke-miterlimit:4;stroke-dasharray:none;stroke-opacity:1"
       id="rect4577"
       width="183.64107"
       height="87.851059"
       x="26.179462"
       y="0.17946969"
       rx="9.7553368"
       ry="9.7553368" />
  </g>
</svg>
