M48
; DRILL file {KiCad 5.1.9-73d0e3b20d~88~ubuntu18.04.1} date Tue Mar  9 23:09:15 2021
; FORMAT={-:-/ absolute / inch / decimal}
; #@! TF.CreationDate,2021-03-09T23:09:15-06:00
; #@! TF.GenerationSoftware,Kicad,Pcbnew,5.1.9-73d0e3b20d~88~ubuntu18.04.1
; #@! TF.FileFunction,Plated,1,2,PTH
FMAT,2
INCH
T1C0.0276
T2C0.0430
T3C0.0472
%
G90
G05
T1
X2.6772Y-1.2992
X2.6772Y-1.6063
X2.7953Y-1.378
X2.7953Y-1.685
X2.9134Y-1.4567
X2.9134Y-1.7638
X3.0315Y-1.2992
X3.0315Y-1.6063
X3.1496Y-1.378
X3.1496Y-1.685
X3.2677Y-1.4567
X3.2677Y-1.7638
X3.3858Y-1.5354
X3.3858Y-1.8425
X3.5039Y-1.2992
X3.5039Y-1.6063
X3.622Y-1.378
X3.622Y-1.685
X3.7402Y-1.4567
X3.7402Y-1.7638
X3.8583Y-1.5354
X3.8583Y-1.8425
X3.9764Y-1.2992
X3.9764Y-1.6063
X4.0945Y-1.378
X4.0945Y-1.685
X4.2126Y-1.4567
X4.2126Y-1.7638
X4.3307Y-1.3031
X4.3307Y-1.6102
X4.4488Y-1.378
X4.4488Y-1.685
X4.5669Y-1.4567
X4.5669Y-1.7638
X4.685Y-1.5354
X4.685Y-1.8425
X4.8031Y-1.2992
X4.8031Y-1.6063
X4.9213Y-1.378
X4.9213Y-1.685
X5.0394Y-1.4567
X5.0394Y-1.7638
X5.1575Y-1.2992
X5.1575Y-1.6063
X5.2756Y-1.378
X5.2756Y-1.685
X5.3937Y-1.4567
X5.3937Y-1.7638
X5.5118Y-1.5354
X5.5118Y-1.8425
X5.6299Y-1.2992
X5.6299Y-1.6063
X5.748Y-1.378
X5.748Y-1.685
X5.8661Y-1.4567
X5.8661Y-1.7638
X5.9843Y-1.5354
X5.9843Y-1.8425
X6.1024Y-1.2992
X6.1024Y-1.6063
X6.2205Y-1.378
X6.2205Y-1.685
X6.3386Y-1.4567
X6.3386Y-1.7638
X6.4567Y-1.5354
X6.4567Y-1.8425
X6.5748Y-1.2992
X6.5748Y-1.6063
X6.6929Y-1.378
X6.6929Y-1.685
X6.811Y-1.4567
X6.811Y-1.7638
T2
X1.3898Y-1.2598
X1.3898Y-1.8598
X1.4898Y-1.2598
X1.4898Y-1.8598
X1.5898Y-1.2598
X1.5898Y-1.8598
X1.6898Y-1.2598
X1.6898Y-1.8598
X1.7898Y-1.2598
X1.7898Y-1.8598
X1.8898Y-1.2598
X1.8898Y-1.8598
X1.9898Y-1.2598
X1.9898Y-1.8598
X2.0898Y-1.2598
X2.0898Y-1.8598
X2.1898Y-1.2598
X2.1898Y-1.8598
X2.2898Y-1.2598
X2.2898Y-1.8598
X2.3898Y-1.2598
X2.3898Y-1.8598
X2.4898Y-1.2598
X2.4898Y-1.8598
T3
X1.4173Y-2.4331
X1.4173Y-3.1024
X1.4173Y-3.7717
X1.6142Y-2.5157
X1.6142Y-3.185
X1.6142Y-3.8543
X2.126Y-2.4331
X2.126Y-3.1024
X2.126Y-3.7717
X2.126Y-4.4409
X2.3228Y-2.5157
X2.3228Y-3.185
X2.3228Y-3.8543
X2.3228Y-4.5236
X2.8346Y-2.4318
X2.8346Y-3.1024
X2.8346Y-3.7717
X2.8346Y-4.4409
X3.0315Y-2.5145
X3.0315Y-3.185
X3.0315Y-3.8543
X3.0315Y-4.5236
X3.5433Y-2.4318
X3.5433Y-3.1024
X3.5433Y-3.7717
X3.7402Y-2.5145
X3.7402Y-3.185
X3.7402Y-3.8543
X3.8976Y-4.4409
X4.0945Y-4.5236
X4.2517Y-2.4318
X4.2517Y-3.1024
X4.2517Y-3.7717
X4.4486Y-2.5145
X4.4486Y-3.185
X4.4486Y-3.8543
X4.9606Y-2.4318
X4.9606Y-3.1024
X4.9606Y-3.7717
X5.1575Y-2.5145
X5.1575Y-3.185
X5.1575Y-3.8543
X5.315Y-4.4409
X5.5118Y-4.5236
X5.6693Y-2.4318
X5.6693Y-3.1024
X5.6693Y-3.7717
X5.8661Y-2.5145
X5.8661Y-3.185
X5.8661Y-3.8543
X6.378Y-2.4318
X6.378Y-3.1024
X6.378Y-3.7717
X6.378Y-4.4409
X6.5748Y-2.5145
X6.5748Y-3.185
X6.5748Y-3.8543
X6.5748Y-4.5236
X7.0866Y-2.4318
X7.0866Y-3.1024
X7.0866Y-3.7717
X7.0866Y-4.4409
X7.2835Y-2.5145
X7.2835Y-3.185
X7.2835Y-3.8543
X7.2835Y-4.5236
X7.7953Y-2.4318
X7.7953Y-3.1024
X7.7953Y-3.7717
X7.9921Y-2.5145
X7.9921Y-3.185
X7.9921Y-3.8543
T0
M30
