G04 #@! TF.GenerationSoftware,KiCad,Pcbnew,5.1.9-73d0e3b20d~88~ubuntu18.04.1*
G04 #@! TF.CreationDate,2021-03-09T23:09:17-06:00*
G04 #@! TF.ProjectId,keyboard,6b657962-6f61-4726-942e-6b696361645f,rev?*
G04 #@! TF.SameCoordinates,Original*
G04 #@! TF.FileFunction,Legend,Top*
G04 #@! TF.FilePolarity,Positive*
%FSLAX46Y46*%
G04 Gerber Fmt 4.6, Leading zero omitted, Abs format (unit mm)*
G04 Created by KiCad (PCBNEW 5.1.9-73d0e3b20d~88~ubuntu18.04.1) date 2021-03-09 23:09:17*
%MOMM*%
%LPD*%
G01*
G04 APERTURE LIST*
%ADD10C,0.381000*%
%ADD11C,0.150000*%
G04 APERTURE END LIST*
D10*
X34030000Y-48510000D02*
X64510000Y-48510000D01*
X64510000Y-48510000D02*
X64510000Y-30730000D01*
X64510000Y-30730000D02*
X34030000Y-30730000D01*
X34030000Y-45970000D02*
X36570000Y-45970000D01*
X36570000Y-45970000D02*
X36570000Y-48510000D01*
D11*
G36*
X39909360Y-34688432D02*
G01*
X40209360Y-34688432D01*
X40209360Y-34788432D01*
X39909360Y-34788432D01*
X39909360Y-34688432D01*
G37*
X39909360Y-34688432D02*
X40209360Y-34688432D01*
X40209360Y-34788432D01*
X39909360Y-34788432D01*
X39909360Y-34688432D01*
G36*
X40309360Y-34888432D02*
G01*
X40409360Y-34888432D01*
X40409360Y-34988432D01*
X40309360Y-34988432D01*
X40309360Y-34888432D01*
G37*
X40309360Y-34888432D02*
X40409360Y-34888432D01*
X40409360Y-34988432D01*
X40309360Y-34988432D01*
X40309360Y-34888432D01*
G36*
X39909360Y-34688432D02*
G01*
X40009360Y-34688432D01*
X40009360Y-35188432D01*
X39909360Y-35188432D01*
X39909360Y-34688432D01*
G37*
X39909360Y-34688432D02*
X40009360Y-34688432D01*
X40009360Y-35188432D01*
X39909360Y-35188432D01*
X39909360Y-34688432D01*
G36*
X39909360Y-35088432D02*
G01*
X40709360Y-35088432D01*
X40709360Y-35188432D01*
X39909360Y-35188432D01*
X39909360Y-35088432D01*
G37*
X39909360Y-35088432D02*
X40709360Y-35088432D01*
X40709360Y-35188432D01*
X39909360Y-35188432D01*
X39909360Y-35088432D01*
G36*
X40509360Y-34688432D02*
G01*
X40709360Y-34688432D01*
X40709360Y-34788432D01*
X40509360Y-34788432D01*
X40509360Y-34688432D01*
G37*
X40509360Y-34688432D02*
X40709360Y-34688432D01*
X40709360Y-34788432D01*
X40509360Y-34788432D01*
X40509360Y-34688432D01*
D10*
X34030000Y-30730000D02*
X31490000Y-30730000D01*
X31490000Y-30730000D02*
X31490000Y-48510000D01*
X31490000Y-48510000D02*
X34030000Y-48510000D01*
X34030000Y-45970000D02*
X34030000Y-48510000D01*
D11*
X33952380Y-37274761D02*
X34047619Y-37322380D01*
X34238095Y-37322380D01*
X34333333Y-37274761D01*
X34380952Y-37179523D01*
X34380952Y-37131904D01*
X34333333Y-37036666D01*
X34238095Y-36989047D01*
X34095238Y-36989047D01*
X34000000Y-36941428D01*
X33952380Y-36846190D01*
X33952380Y-36798571D01*
X34000000Y-36703333D01*
X34095238Y-36655714D01*
X34238095Y-36655714D01*
X34333333Y-36703333D01*
X35238095Y-37274761D02*
X35142857Y-37322380D01*
X34952380Y-37322380D01*
X34857142Y-37274761D01*
X34809523Y-37227142D01*
X34761904Y-37131904D01*
X34761904Y-36846190D01*
X34809523Y-36750952D01*
X34857142Y-36703333D01*
X34952380Y-36655714D01*
X35142857Y-36655714D01*
X35238095Y-36703333D01*
X35666666Y-37322380D02*
X35666666Y-36655714D01*
X35666666Y-36846190D02*
X35714285Y-36750952D01*
X35761904Y-36703333D01*
X35857142Y-36655714D01*
X35952380Y-36655714D01*
X36666666Y-37274761D02*
X36571428Y-37322380D01*
X36380952Y-37322380D01*
X36285714Y-37274761D01*
X36238095Y-37179523D01*
X36238095Y-36798571D01*
X36285714Y-36703333D01*
X36380952Y-36655714D01*
X36571428Y-36655714D01*
X36666666Y-36703333D01*
X36714285Y-36798571D01*
X36714285Y-36893809D01*
X36238095Y-36989047D01*
X37047619Y-36655714D02*
X37238095Y-37322380D01*
X37428571Y-36846190D01*
X37619047Y-37322380D01*
X37809523Y-36655714D01*
X38952380Y-37322380D02*
X38952380Y-36322380D01*
X39380952Y-37322380D02*
X39380952Y-36798571D01*
X39333333Y-36703333D01*
X39238095Y-36655714D01*
X39095238Y-36655714D01*
X39000000Y-36703333D01*
X38952380Y-36750952D01*
X40238095Y-37274761D02*
X40142857Y-37322380D01*
X39952380Y-37322380D01*
X39857142Y-37274761D01*
X39809523Y-37179523D01*
X39809523Y-36798571D01*
X39857142Y-36703333D01*
X39952380Y-36655714D01*
X40142857Y-36655714D01*
X40238095Y-36703333D01*
X40285714Y-36798571D01*
X40285714Y-36893809D01*
X39809523Y-36989047D01*
X40714285Y-37322380D02*
X40714285Y-36655714D01*
X40714285Y-36846190D02*
X40761904Y-36750952D01*
X40809523Y-36703333D01*
X40904761Y-36655714D01*
X41000000Y-36655714D01*
X41714285Y-37274761D02*
X41619047Y-37322380D01*
X41428571Y-37322380D01*
X41333333Y-37274761D01*
X41285714Y-37179523D01*
X41285714Y-36798571D01*
X41333333Y-36703333D01*
X41428571Y-36655714D01*
X41619047Y-36655714D01*
X41714285Y-36703333D01*
X41761904Y-36798571D01*
X41761904Y-36893809D01*
X41285714Y-36989047D01*
X42809523Y-36655714D02*
X43190476Y-36655714D01*
X42952380Y-37322380D02*
X42952380Y-36465238D01*
X43000000Y-36370000D01*
X43095238Y-36322380D01*
X43190476Y-36322380D01*
X43523809Y-37322380D02*
X43523809Y-36655714D01*
X43523809Y-36322380D02*
X43476190Y-36370000D01*
X43523809Y-36417619D01*
X43571428Y-36370000D01*
X43523809Y-36322380D01*
X43523809Y-36417619D01*
X44000000Y-37322380D02*
X44000000Y-36655714D01*
X44000000Y-36846190D02*
X44047619Y-36750952D01*
X44095238Y-36703333D01*
X44190476Y-36655714D01*
X44285714Y-36655714D01*
X44571428Y-37274761D02*
X44666666Y-37322380D01*
X44857142Y-37322380D01*
X44952380Y-37274761D01*
X45000000Y-37179523D01*
X45000000Y-37131904D01*
X44952380Y-37036666D01*
X44857142Y-36989047D01*
X44714285Y-36989047D01*
X44619047Y-36941428D01*
X44571428Y-36846190D01*
X44571428Y-36798571D01*
X44619047Y-36703333D01*
X44714285Y-36655714D01*
X44857142Y-36655714D01*
X44952380Y-36703333D01*
X45285714Y-36655714D02*
X45666666Y-36655714D01*
X45428571Y-36322380D02*
X45428571Y-37179523D01*
X45476190Y-37274761D01*
X45571428Y-37322380D01*
X45666666Y-37322380D01*
X46000000Y-37227142D02*
X46047619Y-37274761D01*
X46000000Y-37322380D01*
X45952380Y-37274761D01*
X46000000Y-37227142D01*
X46000000Y-37322380D01*
X46000000Y-36941428D02*
X45952380Y-36370000D01*
X46000000Y-36322380D01*
X46047619Y-36370000D01*
X46000000Y-36941428D01*
X46000000Y-36322380D01*
X34861904Y-45382348D02*
X34861904Y-44925205D01*
X35661904Y-45153776D02*
X34861904Y-45153776D01*
X34861904Y-44734729D02*
X35661904Y-44201395D01*
X34861904Y-44201395D02*
X35661904Y-44734729D01*
X34861904Y-43744252D02*
X34861904Y-43668062D01*
X34900000Y-43591872D01*
X34938095Y-43553776D01*
X35014285Y-43515681D01*
X35166666Y-43477586D01*
X35357142Y-43477586D01*
X35509523Y-43515681D01*
X35585714Y-43553776D01*
X35623809Y-43591872D01*
X35661904Y-43668062D01*
X35661904Y-43744252D01*
X35623809Y-43820443D01*
X35585714Y-43858538D01*
X35509523Y-43896633D01*
X35357142Y-43934729D01*
X35166666Y-43934729D01*
X35014285Y-43896633D01*
X34938095Y-43858538D01*
X34900000Y-43820443D01*
X34861904Y-43744252D01*
X34823809Y-42563300D02*
X35852380Y-43249014D01*
X35661904Y-42296633D02*
X34861904Y-42296633D01*
X34861904Y-42106157D01*
X34900000Y-41991872D01*
X34976190Y-41915681D01*
X35052380Y-41877586D01*
X35204761Y-41839491D01*
X35319047Y-41839491D01*
X35471428Y-41877586D01*
X35547619Y-41915681D01*
X35623809Y-41991872D01*
X35661904Y-42106157D01*
X35661904Y-42296633D01*
X34861904Y-41572824D02*
X34861904Y-41077586D01*
X35166666Y-41344252D01*
X35166666Y-41229967D01*
X35204761Y-41153776D01*
X35242857Y-41115681D01*
X35319047Y-41077586D01*
X35509523Y-41077586D01*
X35585714Y-41115681D01*
X35623809Y-41153776D01*
X35661904Y-41229967D01*
X35661904Y-41458538D01*
X35623809Y-41534729D01*
X35585714Y-41572824D01*
X38201904Y-45671476D02*
X37401904Y-45671476D01*
X37401904Y-45481000D01*
X37440000Y-45366714D01*
X37516190Y-45290523D01*
X37592380Y-45252428D01*
X37744761Y-45214333D01*
X37859047Y-45214333D01*
X38011428Y-45252428D01*
X38087619Y-45290523D01*
X38163809Y-45366714D01*
X38201904Y-45481000D01*
X38201904Y-45671476D01*
X37478095Y-44909571D02*
X37440000Y-44871476D01*
X37401904Y-44795285D01*
X37401904Y-44604809D01*
X37440000Y-44528619D01*
X37478095Y-44490523D01*
X37554285Y-44452428D01*
X37630476Y-44452428D01*
X37744761Y-44490523D01*
X38201904Y-44947666D01*
X38201904Y-44452428D01*
X48361904Y-45671476D02*
X47561904Y-45671476D01*
X47561904Y-45481000D01*
X47600000Y-45366714D01*
X47676190Y-45290523D01*
X47752380Y-45252428D01*
X47904761Y-45214333D01*
X48019047Y-45214333D01*
X48171428Y-45252428D01*
X48247619Y-45290523D01*
X48323809Y-45366714D01*
X48361904Y-45481000D01*
X48361904Y-45671476D01*
X47561904Y-44719095D02*
X47561904Y-44642904D01*
X47600000Y-44566714D01*
X47638095Y-44528619D01*
X47714285Y-44490523D01*
X47866666Y-44452428D01*
X48057142Y-44452428D01*
X48209523Y-44490523D01*
X48285714Y-44528619D01*
X48323809Y-44566714D01*
X48361904Y-44642904D01*
X48361904Y-44719095D01*
X48323809Y-44795285D01*
X48285714Y-44833380D01*
X48209523Y-44871476D01*
X48057142Y-44909571D01*
X47866666Y-44909571D01*
X47714285Y-44871476D01*
X47638095Y-44833380D01*
X47600000Y-44795285D01*
X47561904Y-44719095D01*
X45821904Y-45671476D02*
X45021904Y-45671476D01*
X45021904Y-45481000D01*
X45060000Y-45366714D01*
X45136190Y-45290523D01*
X45212380Y-45252428D01*
X45364761Y-45214333D01*
X45479047Y-45214333D01*
X45631428Y-45252428D01*
X45707619Y-45290523D01*
X45783809Y-45366714D01*
X45821904Y-45481000D01*
X45821904Y-45671476D01*
X45821904Y-44452428D02*
X45821904Y-44909571D01*
X45821904Y-44681000D02*
X45021904Y-44681000D01*
X45136190Y-44757190D01*
X45212380Y-44833380D01*
X45250476Y-44909571D01*
X42520000Y-45690523D02*
X42481904Y-45766714D01*
X42481904Y-45881000D01*
X42520000Y-45995285D01*
X42596190Y-46071476D01*
X42672380Y-46109571D01*
X42824761Y-46147666D01*
X42939047Y-46147666D01*
X43091428Y-46109571D01*
X43167619Y-46071476D01*
X43243809Y-45995285D01*
X43281904Y-45881000D01*
X43281904Y-45804809D01*
X43243809Y-45690523D01*
X43205714Y-45652428D01*
X42939047Y-45652428D01*
X42939047Y-45804809D01*
X43281904Y-45309571D02*
X42481904Y-45309571D01*
X43281904Y-44852428D01*
X42481904Y-44852428D01*
X43281904Y-44471476D02*
X42481904Y-44471476D01*
X42481904Y-44281000D01*
X42520000Y-44166714D01*
X42596190Y-44090523D01*
X42672380Y-44052428D01*
X42824761Y-44014333D01*
X42939047Y-44014333D01*
X43091428Y-44052428D01*
X43167619Y-44090523D01*
X43243809Y-44166714D01*
X43281904Y-44281000D01*
X43281904Y-44471476D01*
X39980000Y-45690523D02*
X39941904Y-45766714D01*
X39941904Y-45881000D01*
X39980000Y-45995285D01*
X40056190Y-46071476D01*
X40132380Y-46109571D01*
X40284761Y-46147666D01*
X40399047Y-46147666D01*
X40551428Y-46109571D01*
X40627619Y-46071476D01*
X40703809Y-45995285D01*
X40741904Y-45881000D01*
X40741904Y-45804809D01*
X40703809Y-45690523D01*
X40665714Y-45652428D01*
X40399047Y-45652428D01*
X40399047Y-45804809D01*
X40741904Y-45309571D02*
X39941904Y-45309571D01*
X40741904Y-44852428D01*
X39941904Y-44852428D01*
X40741904Y-44471476D02*
X39941904Y-44471476D01*
X39941904Y-44281000D01*
X39980000Y-44166714D01*
X40056190Y-44090523D01*
X40132380Y-44052428D01*
X40284761Y-44014333D01*
X40399047Y-44014333D01*
X40551428Y-44052428D01*
X40627619Y-44090523D01*
X40703809Y-44166714D01*
X40741904Y-44281000D01*
X40741904Y-44471476D01*
X50901904Y-45671476D02*
X50101904Y-45671476D01*
X50101904Y-45481000D01*
X50140000Y-45366714D01*
X50216190Y-45290523D01*
X50292380Y-45252428D01*
X50444761Y-45214333D01*
X50559047Y-45214333D01*
X50711428Y-45252428D01*
X50787619Y-45290523D01*
X50863809Y-45366714D01*
X50901904Y-45481000D01*
X50901904Y-45671476D01*
X50368571Y-44528619D02*
X50901904Y-44528619D01*
X50063809Y-44719095D02*
X50635238Y-44909571D01*
X50635238Y-44414333D01*
X53365714Y-45214333D02*
X53403809Y-45252428D01*
X53441904Y-45366714D01*
X53441904Y-45442904D01*
X53403809Y-45557190D01*
X53327619Y-45633380D01*
X53251428Y-45671476D01*
X53099047Y-45709571D01*
X52984761Y-45709571D01*
X52832380Y-45671476D01*
X52756190Y-45633380D01*
X52680000Y-45557190D01*
X52641904Y-45442904D01*
X52641904Y-45366714D01*
X52680000Y-45252428D01*
X52718095Y-45214333D01*
X52641904Y-44528619D02*
X52641904Y-44681000D01*
X52680000Y-44757190D01*
X52718095Y-44795285D01*
X52832380Y-44871476D01*
X52984761Y-44909571D01*
X53289523Y-44909571D01*
X53365714Y-44871476D01*
X53403809Y-44833380D01*
X53441904Y-44757190D01*
X53441904Y-44604809D01*
X53403809Y-44528619D01*
X53365714Y-44490523D01*
X53289523Y-44452428D01*
X53099047Y-44452428D01*
X53022857Y-44490523D01*
X52984761Y-44528619D01*
X52946666Y-44604809D01*
X52946666Y-44757190D01*
X52984761Y-44833380D01*
X53022857Y-44871476D01*
X53099047Y-44909571D01*
X55981904Y-45671476D02*
X55181904Y-45671476D01*
X55181904Y-45481000D01*
X55220000Y-45366714D01*
X55296190Y-45290523D01*
X55372380Y-45252428D01*
X55524761Y-45214333D01*
X55639047Y-45214333D01*
X55791428Y-45252428D01*
X55867619Y-45290523D01*
X55943809Y-45366714D01*
X55981904Y-45481000D01*
X55981904Y-45671476D01*
X55181904Y-44947666D02*
X55181904Y-44414333D01*
X55981904Y-44757190D01*
X58102857Y-45633380D02*
X58102857Y-45366714D01*
X58521904Y-45252428D02*
X58521904Y-45633380D01*
X57721904Y-45633380D01*
X57721904Y-45252428D01*
X57721904Y-44566714D02*
X57721904Y-44719095D01*
X57760000Y-44795285D01*
X57798095Y-44833380D01*
X57912380Y-44909571D01*
X58064761Y-44947666D01*
X58369523Y-44947666D01*
X58445714Y-44909571D01*
X58483809Y-44871476D01*
X58521904Y-44795285D01*
X58521904Y-44642904D01*
X58483809Y-44566714D01*
X58445714Y-44528619D01*
X58369523Y-44490523D01*
X58179047Y-44490523D01*
X58102857Y-44528619D01*
X58064761Y-44566714D01*
X58026666Y-44642904D01*
X58026666Y-44795285D01*
X58064761Y-44871476D01*
X58102857Y-44909571D01*
X58179047Y-44947666D01*
X60642857Y-45404809D02*
X60680952Y-45290523D01*
X60719047Y-45252428D01*
X60795238Y-45214333D01*
X60909523Y-45214333D01*
X60985714Y-45252428D01*
X61023809Y-45290523D01*
X61061904Y-45366714D01*
X61061904Y-45671476D01*
X60261904Y-45671476D01*
X60261904Y-45404809D01*
X60300000Y-45328619D01*
X60338095Y-45290523D01*
X60414285Y-45252428D01*
X60490476Y-45252428D01*
X60566666Y-45290523D01*
X60604761Y-45328619D01*
X60642857Y-45404809D01*
X60642857Y-45671476D01*
X60528571Y-44528619D02*
X61061904Y-44528619D01*
X60223809Y-44719095D02*
X60795238Y-44909571D01*
X60795238Y-44414333D01*
X63182857Y-45404809D02*
X63220952Y-45290523D01*
X63259047Y-45252428D01*
X63335238Y-45214333D01*
X63449523Y-45214333D01*
X63525714Y-45252428D01*
X63563809Y-45290523D01*
X63601904Y-45366714D01*
X63601904Y-45671476D01*
X62801904Y-45671476D01*
X62801904Y-45404809D01*
X62840000Y-45328619D01*
X62878095Y-45290523D01*
X62954285Y-45252428D01*
X63030476Y-45252428D01*
X63106666Y-45290523D01*
X63144761Y-45328619D01*
X63182857Y-45404809D01*
X63182857Y-45671476D01*
X62801904Y-44490523D02*
X62801904Y-44871476D01*
X63182857Y-44909571D01*
X63144761Y-44871476D01*
X63106666Y-44795285D01*
X63106666Y-44604809D01*
X63144761Y-44528619D01*
X63182857Y-44490523D01*
X63259047Y-44452428D01*
X63449523Y-44452428D01*
X63525714Y-44490523D01*
X63563809Y-44528619D01*
X63601904Y-44604809D01*
X63601904Y-44795285D01*
X63563809Y-44871476D01*
X63525714Y-44909571D01*
X63182857Y-34482809D02*
X63220952Y-34368523D01*
X63259047Y-34330428D01*
X63335238Y-34292333D01*
X63449523Y-34292333D01*
X63525714Y-34330428D01*
X63563809Y-34368523D01*
X63601904Y-34444714D01*
X63601904Y-34749476D01*
X62801904Y-34749476D01*
X62801904Y-34482809D01*
X62840000Y-34406619D01*
X62878095Y-34368523D01*
X62954285Y-34330428D01*
X63030476Y-34330428D01*
X63106666Y-34368523D01*
X63144761Y-34406619D01*
X63182857Y-34482809D01*
X63182857Y-34749476D01*
X62801904Y-33606619D02*
X62801904Y-33759000D01*
X62840000Y-33835190D01*
X62878095Y-33873285D01*
X62992380Y-33949476D01*
X63144761Y-33987571D01*
X63449523Y-33987571D01*
X63525714Y-33949476D01*
X63563809Y-33911380D01*
X63601904Y-33835190D01*
X63601904Y-33682809D01*
X63563809Y-33606619D01*
X63525714Y-33568523D01*
X63449523Y-33530428D01*
X63259047Y-33530428D01*
X63182857Y-33568523D01*
X63144761Y-33606619D01*
X63106666Y-33682809D01*
X63106666Y-33835190D01*
X63144761Y-33911380D01*
X63182857Y-33949476D01*
X63259047Y-33987571D01*
X58102857Y-34482809D02*
X58140952Y-34368523D01*
X58179047Y-34330428D01*
X58255238Y-34292333D01*
X58369523Y-34292333D01*
X58445714Y-34330428D01*
X58483809Y-34368523D01*
X58521904Y-34444714D01*
X58521904Y-34749476D01*
X57721904Y-34749476D01*
X57721904Y-34482809D01*
X57760000Y-34406619D01*
X57798095Y-34368523D01*
X57874285Y-34330428D01*
X57950476Y-34330428D01*
X58026666Y-34368523D01*
X58064761Y-34406619D01*
X58102857Y-34482809D01*
X58102857Y-34749476D01*
X57721904Y-34025666D02*
X57721904Y-33530428D01*
X58026666Y-33797095D01*
X58026666Y-33682809D01*
X58064761Y-33606619D01*
X58102857Y-33568523D01*
X58179047Y-33530428D01*
X58369523Y-33530428D01*
X58445714Y-33568523D01*
X58483809Y-33606619D01*
X58521904Y-33682809D01*
X58521904Y-33911380D01*
X58483809Y-33987571D01*
X58445714Y-34025666D01*
X55562857Y-34482809D02*
X55600952Y-34368523D01*
X55639047Y-34330428D01*
X55715238Y-34292333D01*
X55829523Y-34292333D01*
X55905714Y-34330428D01*
X55943809Y-34368523D01*
X55981904Y-34444714D01*
X55981904Y-34749476D01*
X55181904Y-34749476D01*
X55181904Y-34482809D01*
X55220000Y-34406619D01*
X55258095Y-34368523D01*
X55334285Y-34330428D01*
X55410476Y-34330428D01*
X55486666Y-34368523D01*
X55524761Y-34406619D01*
X55562857Y-34482809D01*
X55562857Y-34749476D01*
X55981904Y-33530428D02*
X55981904Y-33987571D01*
X55981904Y-33759000D02*
X55181904Y-33759000D01*
X55296190Y-33835190D01*
X55372380Y-33911380D01*
X55410476Y-33987571D01*
X45402857Y-34425666D02*
X45402857Y-34692333D01*
X45821904Y-34692333D02*
X45021904Y-34692333D01*
X45021904Y-34311380D01*
X45288571Y-33663761D02*
X45821904Y-33663761D01*
X44983809Y-33854238D02*
X45555238Y-34044714D01*
X45555238Y-33549476D01*
X42481904Y-35225666D02*
X43281904Y-34959000D01*
X42481904Y-34692333D01*
X43205714Y-33968523D02*
X43243809Y-34006619D01*
X43281904Y-34120904D01*
X43281904Y-34197095D01*
X43243809Y-34311380D01*
X43167619Y-34387571D01*
X43091428Y-34425666D01*
X42939047Y-34463761D01*
X42824761Y-34463761D01*
X42672380Y-34425666D01*
X42596190Y-34387571D01*
X42520000Y-34311380D01*
X42481904Y-34197095D01*
X42481904Y-34120904D01*
X42520000Y-34006619D01*
X42558095Y-33968523D01*
X43205714Y-33168523D02*
X43243809Y-33206619D01*
X43281904Y-33320904D01*
X43281904Y-33397095D01*
X43243809Y-33511380D01*
X43167619Y-33587571D01*
X43091428Y-33625666D01*
X42939047Y-33663761D01*
X42824761Y-33663761D01*
X42672380Y-33625666D01*
X42596190Y-33587571D01*
X42520000Y-33511380D01*
X42481904Y-33397095D01*
X42481904Y-33320904D01*
X42520000Y-33206619D01*
X42558095Y-33168523D01*
X40673809Y-34420213D02*
X40711904Y-34305927D01*
X40711904Y-34115451D01*
X40673809Y-34039260D01*
X40635714Y-34001165D01*
X40559523Y-33963070D01*
X40483333Y-33963070D01*
X40407142Y-34001165D01*
X40369047Y-34039260D01*
X40330952Y-34115451D01*
X40292857Y-34267832D01*
X40254761Y-34344022D01*
X40216666Y-34382118D01*
X40140476Y-34420213D01*
X40064285Y-34420213D01*
X39988095Y-34382118D01*
X39950000Y-34344022D01*
X39911904Y-34267832D01*
X39911904Y-34077356D01*
X39950000Y-33963070D01*
X39911904Y-33734499D02*
X39911904Y-33277356D01*
X40711904Y-33505927D02*
X39911904Y-33505927D01*
X37440000Y-34768523D02*
X37401904Y-34844714D01*
X37401904Y-34959000D01*
X37440000Y-35073285D01*
X37516190Y-35149476D01*
X37592380Y-35187571D01*
X37744761Y-35225666D01*
X37859047Y-35225666D01*
X38011428Y-35187571D01*
X38087619Y-35149476D01*
X38163809Y-35073285D01*
X38201904Y-34959000D01*
X38201904Y-34882809D01*
X38163809Y-34768523D01*
X38125714Y-34730428D01*
X37859047Y-34730428D01*
X37859047Y-34882809D01*
X38201904Y-34387571D02*
X37401904Y-34387571D01*
X38201904Y-33930428D01*
X37401904Y-33930428D01*
X38201904Y-33549476D02*
X37401904Y-33549476D01*
X37401904Y-33359000D01*
X37440000Y-33244714D01*
X37516190Y-33168523D01*
X37592380Y-33130428D01*
X37744761Y-33092333D01*
X37859047Y-33092333D01*
X38011428Y-33130428D01*
X38087619Y-33168523D01*
X38163809Y-33244714D01*
X38201904Y-33359000D01*
X38201904Y-33549476D01*
X35661904Y-34711380D02*
X35280952Y-34978047D01*
X35661904Y-35168523D02*
X34861904Y-35168523D01*
X34861904Y-34863761D01*
X34900000Y-34787571D01*
X34938095Y-34749476D01*
X35014285Y-34711380D01*
X35128571Y-34711380D01*
X35204761Y-34749476D01*
X35242857Y-34787571D01*
X35280952Y-34863761D01*
X35280952Y-35168523D01*
X35433333Y-34406619D02*
X35433333Y-34025666D01*
X35661904Y-34482809D02*
X34861904Y-34216142D01*
X35661904Y-33949476D01*
X34861904Y-33759000D02*
X35661904Y-33568523D01*
X35090476Y-33416142D01*
X35661904Y-33263761D01*
X34861904Y-33073285D01*
X47942857Y-34425666D02*
X47942857Y-34692333D01*
X48361904Y-34692333D02*
X47561904Y-34692333D01*
X47561904Y-34311380D01*
X47561904Y-33625666D02*
X47561904Y-34006619D01*
X47942857Y-34044714D01*
X47904761Y-34006619D01*
X47866666Y-33930428D01*
X47866666Y-33739952D01*
X47904761Y-33663761D01*
X47942857Y-33625666D01*
X48019047Y-33587571D01*
X48209523Y-33587571D01*
X48285714Y-33625666D01*
X48323809Y-33663761D01*
X48361904Y-33739952D01*
X48361904Y-33930428D01*
X48323809Y-34006619D01*
X48285714Y-34044714D01*
X50482857Y-34425666D02*
X50482857Y-34692333D01*
X50901904Y-34692333D02*
X50101904Y-34692333D01*
X50101904Y-34311380D01*
X50101904Y-33663761D02*
X50101904Y-33816142D01*
X50140000Y-33892333D01*
X50178095Y-33930428D01*
X50292380Y-34006619D01*
X50444761Y-34044714D01*
X50749523Y-34044714D01*
X50825714Y-34006619D01*
X50863809Y-33968523D01*
X50901904Y-33892333D01*
X50901904Y-33739952D01*
X50863809Y-33663761D01*
X50825714Y-33625666D01*
X50749523Y-33587571D01*
X50559047Y-33587571D01*
X50482857Y-33625666D01*
X50444761Y-33663761D01*
X50406666Y-33739952D01*
X50406666Y-33892333D01*
X50444761Y-33968523D01*
X50482857Y-34006619D01*
X50559047Y-34044714D01*
X53022857Y-34425666D02*
X53022857Y-34692333D01*
X53441904Y-34692333D02*
X52641904Y-34692333D01*
X52641904Y-34311380D01*
X52641904Y-34082809D02*
X52641904Y-33549476D01*
X53441904Y-33892333D01*
X60642857Y-34482809D02*
X60680952Y-34368523D01*
X60719047Y-34330428D01*
X60795238Y-34292333D01*
X60909523Y-34292333D01*
X60985714Y-34330428D01*
X61023809Y-34368523D01*
X61061904Y-34444714D01*
X61061904Y-34749476D01*
X60261904Y-34749476D01*
X60261904Y-34482809D01*
X60300000Y-34406619D01*
X60338095Y-34368523D01*
X60414285Y-34330428D01*
X60490476Y-34330428D01*
X60566666Y-34368523D01*
X60604761Y-34406619D01*
X60642857Y-34482809D01*
X60642857Y-34749476D01*
X60338095Y-33987571D02*
X60300000Y-33949476D01*
X60261904Y-33873285D01*
X60261904Y-33682809D01*
X60300000Y-33606619D01*
X60338095Y-33568523D01*
X60414285Y-33530428D01*
X60490476Y-33530428D01*
X60604761Y-33568523D01*
X61061904Y-34025666D01*
X61061904Y-33530428D01*
M02*
