G04 #@! TF.GenerationSoftware,KiCad,Pcbnew,5.1.9-73d0e3b20d~88~ubuntu18.04.1*
G04 #@! TF.CreationDate,2021-03-09T23:09:17-06:00*
G04 #@! TF.ProjectId,keyboard,6b657962-6f61-4726-942e-6b696361645f,rev?*
G04 #@! TF.SameCoordinates,Original*
G04 #@! TF.FileFunction,Paste,Bot*
G04 #@! TF.FilePolarity,Positive*
%FSLAX46Y46*%
G04 Gerber Fmt 4.6, Leading zero omitted, Abs format (unit mm)*
G04 Created by KiCad (PCBNEW 5.1.9-73d0e3b20d~88~ubuntu18.04.1) date 2021-03-09 23:09:17*
%MOMM*%
%LPD*%
G01*
G04 APERTURE LIST*
%ADD10R,1.200000X1.200000*%
G04 APERTURE END LIST*
D10*
X74000000Y-39325000D03*
X74000000Y-42475000D03*
X122000000Y-35325000D03*
X122000000Y-38475000D03*
X83000000Y-39325000D03*
X83000000Y-42475000D03*
X77000000Y-35325000D03*
X77000000Y-38475000D03*
X107000000Y-39325000D03*
X107000000Y-42475000D03*
X131000000Y-35325000D03*
X131000000Y-38475000D03*
X110000000Y-35425000D03*
X110000000Y-38575000D03*
X167000000Y-35325000D03*
X167000000Y-38475000D03*
X140000000Y-41325000D03*
X140000000Y-44475000D03*
X173000000Y-39325000D03*
X173000000Y-42475000D03*
X170000000Y-37325000D03*
X170000000Y-40475000D03*
X164000000Y-41325000D03*
X164000000Y-44475000D03*
X80000000Y-37325000D03*
X80000000Y-40475000D03*
X101000000Y-35325000D03*
X101000000Y-38475000D03*
X68000000Y-35325000D03*
X68000000Y-38475000D03*
X155000000Y-35325000D03*
X155000000Y-38475000D03*
X128000000Y-39325000D03*
X128000000Y-42475000D03*
X86000000Y-41325000D03*
X86000000Y-44475000D03*
X137000000Y-39325000D03*
X137000000Y-42475000D03*
X158000000Y-37325000D03*
X158000000Y-40475000D03*
X146000000Y-37325000D03*
X146000000Y-40475000D03*
X134000000Y-37325000D03*
X134000000Y-40475000D03*
X143000000Y-35325000D03*
X143000000Y-38475000D03*
X125000000Y-37325000D03*
X125000000Y-40475000D03*
X113000000Y-37325000D03*
X113000000Y-40475000D03*
X104000000Y-37325000D03*
X104000000Y-40475000D03*
X119000000Y-41325000D03*
X119000000Y-44475000D03*
X89000000Y-35325000D03*
X89000000Y-38475000D03*
X161000000Y-39325000D03*
X161000000Y-42475000D03*
X92000000Y-37325000D03*
X92000000Y-40475000D03*
X149000000Y-39325000D03*
X149000000Y-42475000D03*
X95000000Y-39325000D03*
X95000000Y-42475000D03*
X116000000Y-39325000D03*
X116000000Y-42475000D03*
X98000000Y-41325000D03*
X98000000Y-44475000D03*
X71000000Y-37325000D03*
X71000000Y-40475000D03*
X152000000Y-41325000D03*
X152000000Y-44475000D03*
M02*
