G04 #@! TF.GenerationSoftware,KiCad,Pcbnew,5.1.9-73d0e3b20d~88~ubuntu18.04.1*
G04 #@! TF.CreationDate,2021-03-09T23:09:17-06:00*
G04 #@! TF.ProjectId,keyboard,6b657962-6f61-4726-942e-6b696361645f,rev?*
G04 #@! TF.SameCoordinates,Original*
G04 #@! TF.FileFunction,Soldermask,Bot*
G04 #@! TF.FilePolarity,Negative*
%FSLAX46Y46*%
G04 Gerber Fmt 4.6, Leading zero omitted, Abs format (unit mm)*
G04 Created by KiCad (PCBNEW 5.1.9-73d0e3b20d~88~ubuntu18.04.1) date 2021-03-09 23:09:17*
%MOMM*%
%LPD*%
G01*
G04 APERTURE LIST*
%ADD10C,2.200000*%
%ADD11C,2.000000*%
%ADD12C,1.700000*%
%ADD13C,3.400000*%
%ADD14C,1.600000*%
%ADD15R,1.600000X1.600000*%
%ADD16R,1.200000X1.200000*%
%ADD17C,1.752600*%
%ADD18R,1.752600X1.752600*%
G04 APERTURE END LIST*
D10*
X40000000Y-40070000D03*
X204000000Y-108000000D03*
X40000000Y-108000000D03*
X204000000Y-40000000D03*
D11*
X149000000Y-63868750D03*
X144000000Y-61768750D03*
D12*
X143500000Y-57968750D03*
X154500000Y-57968750D03*
D13*
X149000000Y-57968750D03*
D14*
X74000000Y-44800000D03*
D15*
X74000000Y-37000000D03*
D16*
X74000000Y-39325000D03*
X74000000Y-42475000D03*
D14*
X122000000Y-40800000D03*
D15*
X122000000Y-33000000D03*
D16*
X122000000Y-35325000D03*
X122000000Y-38475000D03*
D14*
X83000000Y-44800000D03*
D15*
X83000000Y-37000000D03*
D16*
X83000000Y-39325000D03*
X83000000Y-42475000D03*
D14*
X77000000Y-40800000D03*
D15*
X77000000Y-33000000D03*
D16*
X77000000Y-35325000D03*
X77000000Y-38475000D03*
D14*
X107000000Y-44800000D03*
D15*
X107000000Y-37000000D03*
D16*
X107000000Y-39325000D03*
X107000000Y-42475000D03*
D14*
X131000000Y-40800000D03*
D15*
X131000000Y-33000000D03*
D16*
X131000000Y-35325000D03*
X131000000Y-38475000D03*
D14*
X110000000Y-40900000D03*
D15*
X110000000Y-33100000D03*
D16*
X110000000Y-35425000D03*
X110000000Y-38575000D03*
D14*
X167000000Y-40800000D03*
D15*
X167000000Y-33000000D03*
D16*
X167000000Y-35325000D03*
X167000000Y-38475000D03*
D14*
X140000000Y-46800000D03*
D15*
X140000000Y-39000000D03*
D16*
X140000000Y-41325000D03*
X140000000Y-44475000D03*
D14*
X173000000Y-44800000D03*
D15*
X173000000Y-37000000D03*
D16*
X173000000Y-39325000D03*
X173000000Y-42475000D03*
D14*
X170000000Y-42800000D03*
D15*
X170000000Y-35000000D03*
D16*
X170000000Y-37325000D03*
X170000000Y-40475000D03*
D14*
X164000000Y-46800000D03*
D15*
X164000000Y-39000000D03*
D16*
X164000000Y-41325000D03*
X164000000Y-44475000D03*
D14*
X80000000Y-42800000D03*
D15*
X80000000Y-35000000D03*
D16*
X80000000Y-37325000D03*
X80000000Y-40475000D03*
D14*
X101000000Y-40800000D03*
D15*
X101000000Y-33000000D03*
D16*
X101000000Y-35325000D03*
X101000000Y-38475000D03*
D14*
X68000000Y-40800000D03*
D15*
X68000000Y-33000000D03*
D16*
X68000000Y-35325000D03*
X68000000Y-38475000D03*
D14*
X155000000Y-40800000D03*
D15*
X155000000Y-33000000D03*
D16*
X155000000Y-35325000D03*
X155000000Y-38475000D03*
D14*
X128000000Y-44800000D03*
D15*
X128000000Y-37000000D03*
D16*
X128000000Y-39325000D03*
X128000000Y-42475000D03*
D14*
X86000000Y-46800000D03*
D15*
X86000000Y-39000000D03*
D16*
X86000000Y-41325000D03*
X86000000Y-44475000D03*
D14*
X137000000Y-44800000D03*
D15*
X137000000Y-37000000D03*
D16*
X137000000Y-39325000D03*
X137000000Y-42475000D03*
D14*
X158000000Y-42800000D03*
D15*
X158000000Y-35000000D03*
D16*
X158000000Y-37325000D03*
X158000000Y-40475000D03*
D14*
X146000000Y-42800000D03*
D15*
X146000000Y-35000000D03*
D16*
X146000000Y-37325000D03*
X146000000Y-40475000D03*
D14*
X134000000Y-42800000D03*
D15*
X134000000Y-35000000D03*
D16*
X134000000Y-37325000D03*
X134000000Y-40475000D03*
D14*
X143000000Y-40800000D03*
D15*
X143000000Y-33000000D03*
D16*
X143000000Y-35325000D03*
X143000000Y-38475000D03*
D14*
X125000000Y-42800000D03*
D15*
X125000000Y-35000000D03*
D16*
X125000000Y-37325000D03*
X125000000Y-40475000D03*
D14*
X113000000Y-42800000D03*
D15*
X113000000Y-35000000D03*
D16*
X113000000Y-37325000D03*
X113000000Y-40475000D03*
D14*
X104000000Y-42800000D03*
D15*
X104000000Y-35000000D03*
D16*
X104000000Y-37325000D03*
X104000000Y-40475000D03*
D14*
X119000000Y-46800000D03*
D15*
X119000000Y-39000000D03*
D16*
X119000000Y-41325000D03*
X119000000Y-44475000D03*
D14*
X89000000Y-40800000D03*
D15*
X89000000Y-33000000D03*
D16*
X89000000Y-35325000D03*
X89000000Y-38475000D03*
D14*
X161000000Y-44800000D03*
D15*
X161000000Y-37000000D03*
D16*
X161000000Y-39325000D03*
X161000000Y-42475000D03*
D14*
X92000000Y-42800000D03*
D15*
X92000000Y-35000000D03*
D16*
X92000000Y-37325000D03*
X92000000Y-40475000D03*
D14*
X149000000Y-44800000D03*
D15*
X149000000Y-37000000D03*
D16*
X149000000Y-39325000D03*
X149000000Y-42475000D03*
D14*
X95000000Y-44800000D03*
D15*
X95000000Y-37000000D03*
D16*
X95000000Y-39325000D03*
X95000000Y-42475000D03*
D14*
X116000000Y-44800000D03*
D15*
X116000000Y-37000000D03*
D16*
X116000000Y-39325000D03*
X116000000Y-42475000D03*
D14*
X98000000Y-46800000D03*
D15*
X98000000Y-39000000D03*
D16*
X98000000Y-41325000D03*
X98000000Y-44475000D03*
D14*
X71000000Y-42800000D03*
D15*
X71000000Y-35000000D03*
D16*
X71000000Y-37325000D03*
X71000000Y-40475000D03*
D14*
X152000000Y-46800000D03*
D15*
X152000000Y-39000000D03*
D16*
X152000000Y-41325000D03*
X152000000Y-44475000D03*
D17*
X35300000Y-32000000D03*
X63240000Y-47240000D03*
X37840000Y-32000000D03*
X40380000Y-32000000D03*
X42920000Y-32000000D03*
X45460000Y-32000000D03*
X48000000Y-32000000D03*
X50540000Y-32000000D03*
X53080000Y-32000000D03*
X55620000Y-32000000D03*
X58160000Y-32000000D03*
X60700000Y-32000000D03*
X63240000Y-32000000D03*
X60700000Y-47240000D03*
X58160000Y-47240000D03*
X55620000Y-47240000D03*
X53080000Y-47240000D03*
X50540000Y-47240000D03*
X48000000Y-47240000D03*
X45460000Y-47240000D03*
X42920000Y-47240000D03*
X40380000Y-47240000D03*
X37840000Y-47240000D03*
D18*
X35300000Y-47240000D03*
D11*
X41000000Y-97900000D03*
X36000000Y-95800000D03*
D12*
X35500000Y-92000000D03*
X46500000Y-92000000D03*
D13*
X41000000Y-92000000D03*
D11*
X131000000Y-63868750D03*
X126000000Y-61768750D03*
D12*
X125500000Y-57968750D03*
X136500000Y-57968750D03*
D13*
X131000000Y-57968750D03*
D11*
X59000000Y-97900000D03*
X54000000Y-95800000D03*
D12*
X53500000Y-92000000D03*
X64500000Y-92000000D03*
D13*
X59000000Y-92000000D03*
D11*
X59000000Y-63900000D03*
X54000000Y-61800000D03*
D12*
X53500000Y-58000000D03*
X64500000Y-58000000D03*
D13*
X59000000Y-58000000D03*
D11*
X95000000Y-97900000D03*
X90000000Y-95800000D03*
D12*
X89500000Y-92000000D03*
X100500000Y-92000000D03*
D13*
X95000000Y-92000000D03*
D11*
X112993750Y-63868750D03*
X107993750Y-61768750D03*
D12*
X107493750Y-57968750D03*
X118493750Y-57968750D03*
D13*
X112993750Y-57968750D03*
D11*
X203000000Y-63868750D03*
X198000000Y-61768750D03*
D12*
X197500000Y-57968750D03*
X208500000Y-57968750D03*
D13*
X203000000Y-57968750D03*
D11*
X140000000Y-114900000D03*
X135000000Y-112800000D03*
D12*
X134500000Y-109000000D03*
X145500000Y-109000000D03*
D13*
X140000000Y-109000000D03*
D11*
X203000000Y-97900000D03*
X198000000Y-95800000D03*
D12*
X197500000Y-92000000D03*
X208500000Y-92000000D03*
D13*
X203000000Y-92000000D03*
D11*
X203000000Y-80900000D03*
X198000000Y-78800000D03*
D12*
X197500000Y-75000000D03*
X208500000Y-75000000D03*
D13*
X203000000Y-75000000D03*
D11*
X185000000Y-114900000D03*
X180000000Y-112800000D03*
D12*
X179500000Y-109000000D03*
X190500000Y-109000000D03*
D13*
X185000000Y-109000000D03*
D11*
X59000000Y-80900000D03*
X54000000Y-78800000D03*
D12*
X53500000Y-75000000D03*
X64500000Y-75000000D03*
D13*
X59000000Y-75000000D03*
D11*
X95000000Y-63868750D03*
X90000000Y-61768750D03*
D12*
X89500000Y-57968750D03*
X100500000Y-57968750D03*
D13*
X95000000Y-57968750D03*
D11*
X41000000Y-63900000D03*
X36000000Y-61800000D03*
D12*
X35500000Y-58000000D03*
X46500000Y-58000000D03*
D13*
X41000000Y-58000000D03*
D11*
X185000000Y-63868750D03*
X180000000Y-61768750D03*
D12*
X179500000Y-57968750D03*
X190500000Y-57968750D03*
D13*
X185000000Y-57968750D03*
D11*
X131000000Y-97900000D03*
X126000000Y-95800000D03*
D12*
X125500000Y-92000000D03*
X136500000Y-92000000D03*
D13*
X131000000Y-92000000D03*
D11*
X59000000Y-114900000D03*
X54000000Y-112800000D03*
D12*
X53500000Y-109000000D03*
X64500000Y-109000000D03*
D13*
X59000000Y-109000000D03*
D11*
X149000000Y-97900000D03*
X144000000Y-95800000D03*
D12*
X143500000Y-92000000D03*
X154500000Y-92000000D03*
D13*
X149000000Y-92000000D03*
D11*
X185000000Y-80900000D03*
X180000000Y-78800000D03*
D12*
X179500000Y-75000000D03*
X190500000Y-75000000D03*
D13*
X185000000Y-75000000D03*
D11*
X167000000Y-80900000D03*
X162000000Y-78800000D03*
D12*
X161500000Y-75000000D03*
X172500000Y-75000000D03*
D13*
X167000000Y-75000000D03*
D11*
X149000000Y-80900000D03*
X144000000Y-78800000D03*
D12*
X143500000Y-75000000D03*
X154500000Y-75000000D03*
D13*
X149000000Y-75000000D03*
D11*
X167000000Y-63868750D03*
X162000000Y-61768750D03*
D12*
X161500000Y-57968750D03*
X172500000Y-57968750D03*
D13*
X167000000Y-57968750D03*
D11*
X131000000Y-80900000D03*
X126000000Y-78800000D03*
D12*
X125500000Y-75000000D03*
X136500000Y-75000000D03*
D13*
X131000000Y-75000000D03*
D11*
X112993750Y-80900000D03*
X107993750Y-78800000D03*
D12*
X107493750Y-75000000D03*
X118493750Y-75000000D03*
D13*
X112993750Y-75000000D03*
D11*
X95000000Y-80900000D03*
X90000000Y-78800000D03*
D12*
X89500000Y-75000000D03*
X100500000Y-75000000D03*
D13*
X95000000Y-75000000D03*
D11*
X104000000Y-114900000D03*
X99000000Y-112800000D03*
D12*
X98500000Y-109000000D03*
X109500000Y-109000000D03*
D13*
X104000000Y-109000000D03*
D11*
X77000000Y-63868750D03*
X72000000Y-61768750D03*
D12*
X71500000Y-57968750D03*
X82500000Y-57968750D03*
D13*
X77000000Y-57968750D03*
D11*
X185000000Y-97900000D03*
X180000000Y-95800000D03*
D12*
X179500000Y-92000000D03*
X190500000Y-92000000D03*
D13*
X185000000Y-92000000D03*
D11*
X77000000Y-80900000D03*
X72000000Y-78800000D03*
D12*
X71500000Y-75000000D03*
X82500000Y-75000000D03*
D13*
X77000000Y-75000000D03*
D11*
X167000000Y-97900000D03*
X162000000Y-95800000D03*
D12*
X161500000Y-92000000D03*
X172500000Y-92000000D03*
D13*
X167000000Y-92000000D03*
D11*
X77000000Y-97900000D03*
X72000000Y-95800000D03*
D12*
X71500000Y-92000000D03*
X82500000Y-92000000D03*
D13*
X77000000Y-92000000D03*
D11*
X112993750Y-97900000D03*
X107993750Y-95800000D03*
D12*
X107493750Y-92000000D03*
X118493750Y-92000000D03*
D13*
X112993750Y-92000000D03*
D11*
X77000000Y-114900000D03*
X72000000Y-112800000D03*
D12*
X71500000Y-109000000D03*
X82500000Y-109000000D03*
D13*
X77000000Y-109000000D03*
D11*
X41000000Y-80900000D03*
X36000000Y-78800000D03*
D12*
X35500000Y-75000000D03*
X46500000Y-75000000D03*
D13*
X41000000Y-75000000D03*
D11*
X167000000Y-114900000D03*
X162000000Y-112800000D03*
D12*
X161500000Y-109000000D03*
X172500000Y-109000000D03*
D13*
X167000000Y-109000000D03*
M02*
