M48
; DRILL file {KiCad 5.1.9-73d0e3b20d~88~ubuntu18.04.1} date Tue Mar  9 23:09:15 2021
; FORMAT={-:-/ absolute / inch / decimal}
; #@! TF.CreationDate,2021-03-09T23:09:15-06:00
; #@! TF.GenerationSoftware,Kicad,Pcbnew,5.1.9-73d0e3b20d~88~ubuntu18.04.1
; #@! TF.FileFunction,NonPlated,1,2,NPTH
FMAT,2
INCH
T1C0.0669
T2C0.0866
T3C0.1339
%
G90
G05
T1
X1.3976Y-2.2835
X1.3976Y-2.9528
X1.3976Y-3.622
X1.8307Y-2.2835
X1.8307Y-2.9528
X1.8307Y-3.622
X2.1063Y-2.2835
X2.1063Y-2.9528
X2.1063Y-3.622
X2.1063Y-4.2913
X2.5394Y-2.2835
X2.5394Y-2.9528
X2.5394Y-3.622
X2.5394Y-4.2913
X2.815Y-2.2822
X2.815Y-2.9528
X2.815Y-3.622
X2.815Y-4.2913
X3.248Y-2.2822
X3.248Y-2.9528
X3.248Y-3.622
X3.248Y-4.2913
X3.5236Y-2.2822
X3.5236Y-2.9528
X3.5236Y-3.622
X3.878Y-4.2913
X3.9567Y-2.2822
X3.9567Y-2.9528
X3.9567Y-3.622
X4.232Y-2.2822
X4.232Y-2.9528
X4.232Y-3.622
X4.311Y-4.2913
X4.6651Y-2.2822
X4.6651Y-2.9528
X4.6651Y-3.622
X4.9409Y-2.2822
X4.9409Y-2.9528
X4.9409Y-3.622
X5.2953Y-4.2913
X5.374Y-2.2822
X5.374Y-2.9528
X5.374Y-3.622
X5.6496Y-2.2822
X5.6496Y-2.9528
X5.6496Y-3.622
X5.7283Y-4.2913
X6.0827Y-2.2822
X6.0827Y-2.9528
X6.0827Y-3.622
X6.3583Y-2.2822
X6.3583Y-2.9528
X6.3583Y-3.622
X6.3583Y-4.2913
X6.7913Y-2.2822
X6.7913Y-2.9528
X6.7913Y-3.622
X6.7913Y-4.2913
X7.0669Y-2.2822
X7.0669Y-2.9528
X7.0669Y-3.622
X7.0669Y-4.2913
X7.5Y-2.2822
X7.5Y-2.9528
X7.5Y-3.622
X7.5Y-4.2913
X7.7756Y-2.2822
X7.7756Y-2.9528
X7.7756Y-3.622
X8.2087Y-2.2822
X8.2087Y-2.9528
X8.2087Y-3.622
T2
X1.5748Y-1.5776
X1.5748Y-4.252
X8.0315Y-1.5748
X8.0315Y-4.252
T3
X1.6142Y-2.2835
X1.6142Y-2.9528
X1.6142Y-3.622
X2.3228Y-2.2835
X2.3228Y-2.9528
X2.3228Y-3.622
X2.3228Y-4.2913
X3.0315Y-2.2822
X3.0315Y-2.9528
X3.0315Y-3.622
X3.0315Y-4.2913
X3.7402Y-2.2822
X3.7402Y-2.9528
X3.7402Y-3.622
X4.0945Y-4.2913
X4.4486Y-2.2822
X4.4486Y-2.9528
X4.4486Y-3.622
X5.1575Y-2.2822
X5.1575Y-2.9528
X5.1575Y-3.622
X5.5118Y-4.2913
X5.8661Y-2.2822
X5.8661Y-2.9528
X5.8661Y-3.622
X6.5748Y-2.2822
X6.5748Y-2.9528
X6.5748Y-3.622
X6.5748Y-4.2913
X7.2835Y-2.2822
X7.2835Y-2.9528
X7.2835Y-3.622
X7.2835Y-4.2913
X7.9921Y-2.2822
X7.9921Y-2.9528
X7.9921Y-3.622
T0
M30
